<svg width="52932" height="17466" xmlns="http://www.w3.org/2000/svg" xmlns:xlink="http://www.w3.org/1999/xlink" xml:space="preserve" overflow="hidden"><defs><clipPath id="clip0"><rect x="-18040" y="-9725" width="52932" height="17466"/></clipPath></defs><g clip-path="url(#clip0)" transform="translate(18040 9725)"><text fill="#0B488B" fill-opacity="1" font-family="Segoe UI Light,Segoe UI Light_MSFontService,sans-serif" font-style="normal" font-variant="normal" font-weight="300" font-stretch="normal" font-size="1095" text-anchor="start" direction="ltr" writing-mode="lr-tb" unicode-bidi="normal" text-decoration="none" transform="matrix(1 0 0 1 -17381.5 -756)">Aerosol </text><text fill="#0B488B" fill-opacity="1" font-family="Segoe UI Light,Segoe UI Light_MSFontService,sans-serif" font-style="normal" font-variant="normal" font-weight="300" font-stretch="normal" font-size="1095" text-anchor="start" direction="ltr" writing-mode="lr-tb" unicode-bidi="normal" text-decoration="none" transform="matrix(1 0 0 1 -17381.5 559)">inlet</text><path d="M23564-1312C23564-1709.64 23886.4-2032 24284-2032 24681.6-2032 25004-1709.64 25004-1312 25004-914.355 24681.6-592 24284-592 23886.4-592 23564-914.355 23564-1312Z" stroke="#000000" stroke-width="45.8333" stroke-linecap="butt" stroke-linejoin="miter" stroke-miterlimit="8" stroke-opacity="1" fill="none" fill-rule="evenodd"/><text fill="#0B488B" fill-opacity="1" font-family="Segoe UI Light,Segoe UI Light_MSFontService,sans-serif" font-style="normal" font-variant="normal" font-weight="300" font-stretch="normal" font-size="1095" text-anchor="start" direction="ltr" writing-mode="lr-tb" unicode-bidi="normal" text-decoration="none" transform="matrix(1 0 0 1 24059.5 -950)">2</text><path d="M23520 238C23520-159.645 23842.4-482 24240-482 24637.6-482 24960-159.645 24960 238 24960 635.645 24637.6 958 24240 958 23842.4 958 23520 635.645 23520 238Z" stroke="#000000" stroke-width="45.8333" stroke-linecap="butt" stroke-linejoin="miter" stroke-miterlimit="8" stroke-opacity="1" fill="none" fill-rule="evenodd"/><text fill="#0B488B" fill-opacity="1" font-family="Segoe UI Light,Segoe UI Light_MSFontService,sans-serif" font-style="normal" font-variant="normal" font-weight="300" font-stretch="normal" font-size="1095" text-anchor="start" direction="ltr" writing-mode="lr-tb" unicode-bidi="normal" text-decoration="none" transform="matrix(1 0 0 1 24015.2 600)">3</text><path d="M23541-2864C23541-3261.65 23863.4-3584 24261-3584 24658.6-3584 24981-3261.65 24981-2864 24981-2466.35 24658.6-2144 24261-2144 23863.4-2144 23541-2466.35 23541-2864Z" stroke="#000000" stroke-width="45.8333" stroke-linecap="butt" stroke-linejoin="miter" stroke-miterlimit="8" stroke-opacity="1" fill="none" fill-rule="evenodd"/><text fill="#0B488B" fill-opacity="1" font-family="Segoe UI Light,Segoe UI Light_MSFontService,sans-serif" font-style="normal" font-variant="normal" font-weight="300" font-stretch="normal" font-size="1095" text-anchor="start" direction="ltr" writing-mode="lr-tb" unicode-bidi="normal" text-decoration="none" transform="matrix(1 0 0 1 24036.3 -2501)">1</text><path d="M23520 1813C23520 1415.36 23842.4 1093 24240 1093 24637.6 1093 24960 1415.36 24960 1813 24960 2210.65 24637.6 2533 24240 2533 23842.4 2533 23520 2210.65 23520 1813Z" stroke="#000000" stroke-width="45.8333" stroke-linecap="butt" stroke-linejoin="miter" stroke-miterlimit="8" stroke-opacity="1" fill="none" fill-rule="evenodd"/><text fill="#0B488B" fill-opacity="1" font-family="Segoe UI Light,Segoe UI Light_MSFontService,sans-serif" font-style="normal" font-variant="normal" font-weight="300" font-stretch="normal" font-size="1095" text-anchor="start" direction="ltr" writing-mode="lr-tb" unicode-bidi="normal" text-decoration="none" transform="matrix(1 0 0 1 24015.2 2175)">4</text><text fill="#0B488B" fill-opacity="1" font-family="Segoe UI Light,Segoe UI Light_MSFontService,sans-serif" font-style="normal" font-variant="normal" font-weight="300" font-stretch="normal" font-size="1095" text-anchor="start" direction="ltr" writing-mode="lr-tb" unicode-bidi="normal" text-decoration="none" transform="matrix(1 0 0 1 25173.3 -950)">Outer Pully</text><text fill="#0B488B" fill-opacity="1" font-family="Segoe UI Light,Segoe UI Light_MSFontService,sans-serif" font-style="normal" font-variant="normal" font-weight="300" font-stretch="normal" font-size="1095" text-anchor="start" direction="ltr" writing-mode="lr-tb" unicode-bidi="normal" text-decoration="none" transform="matrix(1 0 0 1 25102.8 670)">Inner Pully</text><text fill="#0B488B" fill-opacity="1" font-family="Segoe UI Light,Segoe UI Light_MSFontService,sans-serif" font-style="normal" font-variant="normal" font-weight="300" font-stretch="normal" font-size="1095" text-anchor="start" direction="ltr" writing-mode="lr-tb" unicode-bidi="normal" text-decoration="none" transform="matrix(1 0 0 1 25220.4 -2437)">Bearing</text><text fill="#0B488B" fill-opacity="1" font-family="Segoe UI Light,Segoe UI Light_MSFontService,sans-serif" font-style="normal" font-variant="normal" font-weight="300" font-stretch="normal" font-size="1095" text-anchor="start" direction="ltr" writing-mode="lr-tb" unicode-bidi="normal" text-decoration="none" transform="matrix(1 0 0 1 25173.3 2192)">Classification region</text><path d="M23532 3376C23532 2978.36 23854.4 2656 24252 2656 24649.6 2656 24972 2978.36 24972 3376 24972 3773.65 24649.6 4096 24252 4096 23854.4 4096 23532 3773.65 23532 3376Z" stroke="#000000" stroke-width="45.8333" stroke-linecap="butt" stroke-linejoin="miter" stroke-miterlimit="8" stroke-opacity="1" fill="none" fill-rule="evenodd"/><text fill="#0B488B" fill-opacity="1" font-family="Segoe UI Light,Segoe UI Light_MSFontService,sans-serif" font-style="normal" font-variant="normal" font-weight="300" font-stretch="normal" font-size="1095" text-anchor="start" direction="ltr" writing-mode="lr-tb" unicode-bidi="normal" text-decoration="none" transform="matrix(1 0 0 1 24027.2 3738)">5</text><text fill="#0B488B" fill-opacity="1" font-family="Segoe UI Light,Segoe UI Light_MSFontService,sans-serif" font-style="normal" font-variant="normal" font-weight="300" font-stretch="normal" font-size="1095" text-anchor="start" direction="ltr" writing-mode="lr-tb" unicode-bidi="normal" text-decoration="none" transform="matrix(1 0 0 1 25185.3 3755)">Inner cylinder</text><path d="M23496 4939C23496 4541.35 23818.4 4219 24216 4219 24613.6 4219 24936 4541.35 24936 4939 24936 5336.65 24613.6 5659 24216 5659 23818.4 5659 23496 5336.65 23496 4939Z" stroke="#000000" stroke-width="45.8333" stroke-linecap="butt" stroke-linejoin="miter" stroke-miterlimit="8" stroke-opacity="1" fill="none" fill-rule="evenodd"/><text fill="#0B488B" fill-opacity="1" font-family="Segoe UI Light,Segoe UI Light_MSFontService,sans-serif" font-style="normal" font-variant="normal" font-weight="300" font-stretch="normal" font-size="1095" text-anchor="start" direction="ltr" writing-mode="lr-tb" unicode-bidi="normal" text-decoration="none" transform="matrix(1 0 0 1 23991.7 5302)">6</text><text fill="#0B488B" fill-opacity="1" font-family="Segoe UI Light,Segoe UI Light_MSFontService,sans-serif" font-style="normal" font-variant="normal" font-weight="300" font-stretch="normal" font-size="1095" text-anchor="start" direction="ltr" writing-mode="lr-tb" unicode-bidi="normal" text-decoration="none" transform="matrix(1 0 0 1 25149.8 5318)">Outer cylinder</text><path d="M23175.5 6432.5 25105.5 6432.5" stroke="#0B488B" stroke-width="73.3333" stroke-linecap="butt" stroke-linejoin="miter" stroke-miterlimit="8" stroke-dasharray="293.333 220" stroke-opacity="1" fill="none" fill-rule="evenodd"/><text fill="#0B488B" fill-opacity="1" font-family="Segoe UI Light,Segoe UI Light_MSFontService,sans-serif" font-style="normal" font-variant="normal" font-weight="300" font-stretch="normal" font-size="1095" text-anchor="start" direction="ltr" writing-mode="lr-tb" unicode-bidi="normal" text-decoration="none" transform="matrix(1 0 0 1 25154 6834)">Aerosol path</text><path d="M14205.5-3338.5 18283.9-3338.5 18283.9 720.701 18774.5 720.701 18774.5 5510.14 18300.9 5510.14 18300.9 7149.5 14205.5 7149.5 14205.5 2598.93 14205.5 2598.93 14205.5-52.5621 14209.3-52.0507C14246.6-52.0507 14280.4-92.8431 14304.8-158.796L14306.2-163.275 16250.9-163.275 16229.1-182.015C16164.7-243.508 16125.1-327.599 16125.1-420.332 16125.1-526.313 16176.9-621.007 16258.1-683.579L16265-688.392 14299-688.392 14295.2-697.732C14271.9-749.723 14241.9-780.955 14209.3-780.955L14205.5-780.444Z" stroke="#000000" stroke-width="36.6667" stroke-linecap="butt" stroke-linejoin="miter" stroke-miterlimit="8" stroke-opacity="1" fill="#D9D9D9" fill-rule="evenodd" fill-opacity="1"/><path d="M18271.5-3345.5C18276.2-3337.31 18315.7-3311.82 18320.4-3303.63 18534.9-3179.38 18673.2-2436.87 18751.5-1666.27L18761.4-1559.81 18771.3-1559.81 18771.3-1454.86 18773.1-1434.83C18774-1149.2 18776.8-26.9503 18776.5 258.945L18771.3 280.541 18771.3 6613.83 18770.2 6613.83 18776 6621.29 18302.1 7141.5C18302.3 6965.61 18302.5 6789.72 18302.7 6613.83L18301.1 6613.83 18271.5-3345.5Z" stroke="#000000" stroke-width="36.6667" stroke-linecap="butt" stroke-linejoin="miter" stroke-miterlimit="8" stroke-opacity="1" fill="#D0CECE" fill-rule="evenodd" fill-opacity="1"/><path d="M14213.5-775.5 15105.9-775.5 15338.5-775.5 17390.4-775.5 18299.6-775.5 18316.3-760.954C18393.5-686.155 18444.8-587.304 18456.5-477.395L18457.5-457.452 18457.5-405.322 18455.7-375.197C18440.6-250.111 18374-139.808 18276.5-63.6976L18267-57.0062 15338.5-46.4114 15086.5-45.4999 15091.2-48.8066 14213.5-45.6306 14213.5-75.4705 14226.6-86.8475C14314.8-172.331 14369.2-289.233 14369.2-418.147 14369.2-547.062 14314.8-663.963 14226.6-749.448L14213.5-760.826Z" stroke="#000000" stroke-width="36.6667" stroke-linecap="butt" stroke-linejoin="miter" stroke-miterlimit="8" stroke-opacity="1" fill="#FFFFFF" fill-rule="evenodd" fill-opacity="1"/><path d="M14213.5-2664.5 15338.5-2664.5 15338.5-775.5 15105.9-775.5 14213.5-775.5 14213.5-2664.5Z" stroke="#000000" stroke-width="36.6667" stroke-linecap="butt" stroke-linejoin="miter" stroke-miterlimit="8" stroke-opacity="1" fill="#C2BFBF" fill-rule="evenodd" fill-opacity="1"/><path d="M15091.2-49.5 15086.6-46.1946 15338.5-47.1058 15338.5 1681.5 14213.5 1681.5 14213.5-46.3253 15091.2-49.5Z" stroke="#000000" stroke-width="36.6667" stroke-linecap="butt" stroke-linejoin="miter" stroke-miterlimit="8" stroke-opacity="1" fill="#C2BFBF" fill-rule="evenodd" fill-opacity="1"/><path d="M257.812-1.96854 257.812 276.432 324.83 281.231 387.061 310.032 439.719 348.432 482.802 401.231 506.738 463.631 516.311 530.831 506.738 598.032 482.802 660.432 439.719 713.231 387.061 756.432 324.83 780.432 257.812 790.032 190.793 780.432 128.561 756.432 75.9037 713.231 37.6068 660.432 8.88501 598.032-0.689034 530.831 8.88501 463.631 37.6068 401.231 75.9037 348.432 128.561 310.032 190.793 281.231 257.812 276.432" stroke="#000000" stroke-width="36.6667" stroke-linecap="round" stroke-linejoin="round" stroke-miterlimit="10" stroke-opacity="1" fill="#D9D9D9" fill-rule="evenodd" fill-opacity="1" transform="matrix(-1.83697e-16 -1 -1 1.83697e-16 15272.5 1457.5)"/><path d="M258.31-1.96854 258.31 276.432 325.458 281.231 387.81 310.032 440.569 348.432 483.736 401.231 507.718 463.631 517.31 530.831 507.718 598.032 483.736 660.432 440.569 713.231 387.81 756.432 325.458 780.432 258.31 790.032 191.162 780.432 128.809 756.432 76.0505 713.231 37.6795 660.432 8.9022 598.032-0.690367 530.831 8.9022 463.631 37.6795 401.231 76.0505 348.432 128.809 310.032 191.162 281.231 258.31 276.432" stroke="#000000" stroke-width="36.6667" stroke-linecap="round" stroke-linejoin="round" stroke-miterlimit="10" stroke-opacity="1" fill="#D9D9D9" fill-rule="evenodd" fill-opacity="1" transform="matrix(-1.83697e-16 -1 -1 1.83697e-16 15272.5 -1868.5)"/><path d="M9882.5-6217.5 9908.85-6216.29C10770.1-6136.79 11461.5-3568.33 11461.5-411.5 11461.5 2745.33 10770.1 5313.79 9908.85 5393.28L9882.5 5394.5 9882.5-6217.5Z" stroke="#0D0D0D" stroke-width="36.6667" stroke-linecap="butt" stroke-linejoin="miter" stroke-miterlimit="8" stroke-opacity="1" fill="#D0CECE" fill-rule="evenodd" fill-opacity="1"/><path d="M11006.5-3333.5C11013-3325.29 11067.9-3299.78 11074.4-3291.57 11551.2-3092.52 11756.8-1308.62 11783.5-360.414 11810.1 587.788 11573.4 2042.8 11234.2 2397.64L11040 2491.5 11006.5-3333.5Z" stroke="#0D0D0D" stroke-width="36.6667" stroke-linecap="butt" stroke-linejoin="miter" stroke-miterlimit="8" stroke-opacity="1" fill="#9E9A9A" fill-rule="evenodd" fill-opacity="1"/><path d="M10988.5-2620.5C11048.6-2563.04 11102.6-2559.56 11168.7-2448.11 11362.5-1775.76 11466.5-1088.72 11442-393.289 11417.4 302.145 11411.6 1367.02 11021.4 1724.5 11020.9 1539.89 11013.4 1320.3 11012.9 1135.7L10988.5-2620.5Z" stroke="#0D0D0D" stroke-width="36.6667" stroke-linecap="butt" stroke-linejoin="miter" stroke-miterlimit="8" stroke-opacity="1" fill="#C2BFBF" fill-rule="evenodd" fill-opacity="0.447059"/><path d="M11004.5-2065.5C11111.9-1995.31 11099.5-1997.11 11133.5-1922.77 11233-1556.79 11295.7-916.436 11294.5-421.943 11293.3 72.5496 11275.1 678.207 11126.5 1044.19L11020.7 1242.5 11004.5-2065.5Z" stroke="#0D0D0D" stroke-width="36.6667" stroke-linecap="butt" stroke-linejoin="miter" stroke-miterlimit="8" stroke-opacity="1" fill="none" fill-rule="evenodd"/><path d="M0 11989 26.7925 11987.6C262.203 11962 456.249 11787.3 524.451 11553.3L529.932 11530.6 459.876 11530.6 459.876 383.356 534 383.356 528.519 364.339C460.317 168.704 266.272 22.5372 30.8602 1.20714L4.06692 0 4.06692 383.356 0 383.356 0 11530.6Z" stroke="#0D0D0D" stroke-width="36.6667" stroke-linecap="butt" stroke-linejoin="miter" stroke-miterlimit="8" stroke-opacity="1" fill="#D0CECE" fill-rule="evenodd" fill-opacity="1" transform="matrix(1 0 0 -1 -4372.5 5538.5)"/><path d="M0 11989 26.8427 11987.6C262.694 11962 457.103 11787.3 525.433 11553.3L530.925 11530.6 460.737 11530.6 460.737 383.356 535 383.356 529.509 364.339C461.179 168.704 266.77 22.5372 30.9179 1.20714L4.07454 0 4.07454 383.356 0 383.356 0 11530.6Z" stroke="#0D0D0D" stroke-width="36.6667" stroke-linecap="butt" stroke-linejoin="miter" stroke-miterlimit="8" stroke-opacity="1" fill="#D0CECE" fill-rule="evenodd" fill-opacity="1" transform="matrix(1 0 0 -1 -6842.5 5511.5)"/><path d="M0 11990 26.8427 11988.6C262.694 11963 457.103 11788.2 525.433 11554.3L530.925 11531.5 460.737 11531.5 460.737 383.388 535 383.388 529.509 364.369C461.179 168.718 266.77 22.5391 30.9179 1.20724L4.07454 0 4.07454 383.388 0 383.388 0 11531.5Z" stroke="#0D0D0D" stroke-width="36.6667" stroke-linecap="butt" stroke-linejoin="miter" stroke-miterlimit="8" stroke-opacity="1" fill="#D0CECE" fill-rule="evenodd" fill-opacity="1" transform="matrix(1 0 0 -1 -5293.5 5546.5)"/><path d="M0 11990 26.8427 11988.6C262.694 11963 457.103 11788.2 525.433 11554.3L530.925 11531.5 460.737 11531.5 460.737 383.388 535 383.388 529.509 364.369C461.179 168.718 266.77 22.5391 30.9179 1.20724L4.07454 0 4.07454 383.388 0 383.388 0 11531.5Z" stroke="#0D0D0D" stroke-width="36.6667" stroke-linecap="butt" stroke-linejoin="miter" stroke-miterlimit="8" stroke-opacity="1" fill="#D0CECE" fill-rule="evenodd" fill-opacity="1" transform="matrix(1 0 0 -1 -5957.5 5540.5)"/><path d="M-6108.39-6471.5-5959.96-6471.5-5959.96-5998.01-5953.5-5998.01-5953.5 5159.49-5959.96 5159.49-5959.96 5520.24-6108.39 5520.24-6108.39 5159.49-6847.94 5159.49-6847.94 5533.5-7041.5 5533.5-7041.5-6458.24-6847.94-6458.24-6847.94-5998.01-6108.39-5998.01Z" stroke="#0D0D0D" stroke-width="36.6667" stroke-linecap="butt" stroke-linejoin="miter" stroke-miterlimit="8" stroke-opacity="1" fill="#D9D9D9" fill-rule="evenodd" fill-opacity="1"/><path d="M-4533.66-6458.5-4380.17-6458.5-4380.17-5980.77-4373.5-5980.77-4373.5-3347.5-5498.5-3347.5-5498.5-6445.12-5298.36-6445.12-5298.36-5980.77-4533.66-5980.77-4533.66-6458.5Z" stroke="#0D0D0D" stroke-width="36.6667" stroke-linecap="butt" stroke-linejoin="miter" stroke-miterlimit="8" stroke-opacity="1" fill="#D9D9D9" fill-rule="evenodd" fill-opacity="1"/><path d="M-5498.5 2463.5-4373.5 2463.5-4373.5 5172.45-4380.17 5172.45-4380.17 5533.24-4533.66 5533.24-4533.66 5172.45-5298.36 5172.45-5298.36 5546.5-5498.5 5546.5-5498.5 2463.5Z" stroke="#0D0D0D" stroke-width="36.6667" stroke-linecap="butt" stroke-linejoin="miter" stroke-miterlimit="8" stroke-opacity="1" fill="#D9D9D9" fill-rule="evenodd" fill-opacity="1"/><path d="M257.812-1.96605 257.812 276.083 324.83 280.876 387.061 309.64 439.719 347.992 482.802 400.724 506.738 463.046 516.311 530.16 506.738 597.276 482.802 659.598 439.719 712.33 387.061 755.477 324.83 779.447 257.812 789.034 190.793 779.447 128.561 755.477 75.9037 712.33 37.6068 659.598 8.88501 597.276-0.689034 530.16 8.88501 463.046 37.6068 400.724 75.9037 347.992 128.561 309.64 190.793 280.876 257.812 276.083" stroke="#0D0D0D" stroke-width="36.6667" stroke-linecap="round" stroke-linejoin="round" stroke-miterlimit="10" stroke-opacity="1" fill="#AFABAB" fill-rule="evenodd" fill-opacity="1" transform="matrix(-1.83697e-16 -1 -1 1.83697e-16 -4412.5 1487.5)"/><path d="M258.31-1.96605 258.31 276.083 325.458 280.876 387.81 309.64 440.569 347.992 483.736 400.724 507.718 463.046 517.31 530.16 507.718 597.276 483.736 659.598 440.569 712.33 387.81 755.477 325.458 779.447 258.31 789.034 191.162 779.447 128.809 755.477 76.0505 712.33 37.6795 659.598 8.9022 597.276-0.690367 530.16 8.9022 463.046 37.6795 400.724 76.0505 347.992 128.809 309.64 191.162 280.876 258.31 276.083" stroke="#0D0D0D" stroke-width="36.6667" stroke-linecap="round" stroke-linejoin="round" stroke-miterlimit="10" stroke-opacity="1" fill="#AFABAB" fill-rule="evenodd" fill-opacity="1" transform="matrix(-1.83697e-16 -1 -1 1.83697e-16 -4412.5 -1838.5)"/><path d="M9888.5-2600.5 11013.5-2600.5 11013.5 1784.5 9888.5 1784.5 9888.5-2600.5Z" stroke="#0D0D0D" stroke-width="36.6667" stroke-linecap="butt" stroke-linejoin="miter" stroke-miterlimit="8" stroke-opacity="1" fill="#C2BFBF" fill-rule="evenodd" fill-opacity="1"/><path d="M258.31-1.96854 258.31 276.432 325.458 281.231 387.81 310.032 440.569 348.432 483.736 401.231 507.718 463.631 517.31 530.831 507.718 598.032 483.736 660.432 440.569 713.231 387.81 756.432 325.458 780.432 258.31 790.032 191.162 780.432 128.809 756.432 76.0505 713.231 37.6795 660.432 8.9022 598.032-0.690367 530.831 8.9022 463.631 37.6795 401.231 76.0505 348.432 128.809 310.032 191.162 281.231 258.31 276.432" stroke="#0D0D0D" stroke-width="36.6667" stroke-linecap="round" stroke-linejoin="round" stroke-miterlimit="10" stroke-opacity="1" fill="#D9D9D9" fill-rule="evenodd" fill-opacity="1" transform="matrix(-1.83697e-16 -1 -1 1.83697e-16 11011.5 1521.5)"/><path d="M258.31-1.96854 258.31 276.432 325.458 281.231 387.81 310.032 440.569 348.432 483.736 401.231 507.718 463.631 517.31 530.831 507.718 598.032 483.736 660.432 440.569 713.231 387.81 756.432 325.458 780.432 258.31 790.032 191.162 780.432 128.809 756.432 76.0505 713.231 37.6795 660.432 8.9022 598.032-0.690367 530.831 8.9022 463.631 37.6795 401.231 76.0505 348.432 128.809 310.032 191.162 281.231 258.31 276.432" stroke="#0D0D0D" stroke-width="36.6667" stroke-linecap="round" stroke-linejoin="round" stroke-miterlimit="10" stroke-opacity="1" fill="#D9D9D9" fill-rule="evenodd" fill-opacity="1" transform="matrix(-1.83697e-16 -1 -1 1.83697e-16 10992.5 -1798.5)"/><path d="M-5498.5-2620.5-4373.5-2620.5-4373.5 1764.5-5498.5 1764.5-5498.5-2620.5Z" stroke="#0D0D0D" stroke-width="36.6667" stroke-linecap="butt" stroke-linejoin="miter" stroke-miterlimit="8" stroke-opacity="1" fill="#C2BFBF" fill-rule="evenodd" fill-opacity="1"/><path d="M258.31-1.96854 258.31 276.432 325.458 281.231 387.81 310.032 440.569 348.432 483.736 401.231 507.718 463.631 517.31 530.831 507.718 598.032 483.736 660.432 440.569 713.231 387.81 756.432 325.458 780.432 258.31 790.032 191.162 780.432 128.809 756.432 76.0505 713.231 37.6795 660.432 8.9022 598.032-0.690367 530.831 8.9022 463.631 37.6795 401.231 76.0505 348.432 128.809 310.032 191.162 281.231 258.31 276.432" stroke="#0D0D0D" stroke-width="36.6667" stroke-linecap="round" stroke-linejoin="round" stroke-miterlimit="10" stroke-opacity="1" fill="#AFABAB" fill-rule="evenodd" fill-opacity="1" transform="matrix(-1.83697e-16 -1 -1 1.83697e-16 -4375.5 1501.5)"/><path d="M258.31-1.96854 258.31 276.432 325.458 281.231 387.81 310.032 440.569 348.432 483.736 401.231 507.718 463.631 517.31 530.831 507.718 598.032 483.736 660.432 440.569 713.231 387.81 756.432 325.458 780.432 258.31 790.032 191.162 780.432 128.809 756.432 76.0505 713.231 37.6795 660.432 8.9022 598.032-0.690367 530.831 8.9022 463.631 37.6795 401.231 76.0505 348.432 128.809 310.032 191.162 281.231 258.31 276.432" stroke="#0D0D0D" stroke-width="36.6667" stroke-linecap="round" stroke-linejoin="round" stroke-miterlimit="10" stroke-opacity="1" fill="#AFABAB" fill-rule="evenodd" fill-opacity="1" transform="matrix(-1.83697e-16 -1 -1 1.83697e-16 -4394.5 -1818.5)"/><path d="M258.31-1.96854 258.31 276.432 325.458 281.231 387.81 310.032 440.569 348.432 483.736 401.231 507.718 463.631 517.31 530.831 507.718 598.032 483.736 660.432 440.569 713.231 387.81 756.432 325.458 780.432 258.31 790.032 191.162 780.432 128.809 756.432 76.0505 713.231 37.6795 660.432 8.9022 598.032-0.690367 530.831 8.9022 463.631 37.6795 401.231 76.0505 348.432 128.809 310.032 191.162 281.231 258.31 276.432" stroke="#0D0D0D" stroke-width="36.6667" stroke-linecap="round" stroke-linejoin="round" stroke-miterlimit="10" stroke-opacity="1" fill="#D9D9D9" fill-rule="evenodd" fill-opacity="1" transform="matrix(-1.83697e-16 -1 -1 1.83697e-16 -4391.5 1501.5)"/><path d="M258.31-1.96854 258.31 276.432 325.458 281.231 387.81 310.032 440.569 348.432 483.736 401.231 507.718 463.631 517.31 530.831 507.718 598.032 483.736 660.432 440.569 713.231 387.81 756.432 325.458 780.432 258.31 790.032 191.162 780.432 128.809 756.432 76.0505 713.231 37.6795 660.432 8.9022 598.032-0.690367 530.831 8.9022 463.631 37.6795 401.231 76.0505 348.432 128.809 310.032 191.162 281.231 258.31 276.432" stroke="#0D0D0D" stroke-width="36.6667" stroke-linecap="round" stroke-linejoin="round" stroke-miterlimit="10" stroke-opacity="1" fill="#D9D9D9" fill-rule="evenodd" fill-opacity="1" transform="matrix(-1.83697e-16 -1 -1 1.83697e-16 -4410.5 -1818.5)"/><path d="M-8988-2386.5C-8988-2784.42-8665.65-3107-8268-3107-7870.35-3107-7548-2784.42-7548-2386.5-7548-1988.58-7870.35-1666-8268-1666-8665.65-1666-8988-1988.58-8988-2386.5Z" stroke="#000000" stroke-width="45.8333" stroke-linecap="butt" stroke-linejoin="miter" stroke-miterlimit="8" stroke-opacity="1" fill="none" fill-rule="evenodd"/><text fill="#0B488B" fill-opacity="1" font-family="Segoe UI Light,Segoe UI Light_MSFontService,sans-serif" font-style="normal" font-variant="normal" font-weight="300" font-stretch="normal" font-size="1095" text-anchor="start" direction="ltr" writing-mode="lr-tb" unicode-bidi="normal" text-decoration="none" transform="matrix(1 0 0 1 -8492.91 -2024)">1</text><path d="M-7218-7339C-7218-7736.65-6895.42-8059-6497.5-8059-6099.58-8059-5777-7736.65-5777-7339-5777-6941.35-6099.58-6619-6497.5-6619-6895.42-6619-7218-6941.35-7218-7339Z" stroke="#000000" stroke-width="45.8333" stroke-linecap="butt" stroke-linejoin="miter" stroke-miterlimit="8" stroke-opacity="1" fill="none" fill-rule="evenodd"/><text fill="#0B488B" fill-opacity="1" font-family="Segoe UI Light,Segoe UI Light_MSFontService,sans-serif" font-style="normal" font-variant="normal" font-weight="300" font-stretch="normal" font-size="1095" text-anchor="start" direction="ltr" writing-mode="lr-tb" unicode-bidi="normal" text-decoration="none" transform="matrix(1 0 0 1 -6722.19 -6976)">2</text><path d="M-5549-7378C-5549-7775.65-5226.42-8098-4828.5-8098-4430.58-8098-4108-7775.65-4108-7378-4108-6980.35-4430.58-6658-4828.5-6658-5226.42-6658-5549-6980.35-5549-7378Z" stroke="#000000" stroke-width="45.8333" stroke-linecap="butt" stroke-linejoin="miter" stroke-miterlimit="8" stroke-opacity="1" fill="none" fill-rule="evenodd"/><text fill="#0B488B" fill-opacity="1" font-family="Segoe UI Light,Segoe UI Light_MSFontService,sans-serif" font-style="normal" font-variant="normal" font-weight="300" font-stretch="normal" font-size="1095" text-anchor="start" direction="ltr" writing-mode="lr-tb" unicode-bidi="normal" text-decoration="none" transform="matrix(1 0 0 1 -5053.11 -7016)">3</text><path d="M11329-2302.5C11329-2700.42 11651.4-3023 12049-3023 12446.6-3023 12769-2700.42 12769-2302.5 12769-1904.58 12446.6-1582 12049-1582 11651.4-1582 11329-1904.58 11329-2302.5Z" stroke="#000000" stroke-width="45.8333" stroke-linecap="butt" stroke-linejoin="miter" stroke-miterlimit="8" stroke-opacity="1" fill="none" fill-rule="evenodd"/><text fill="#0B488B" fill-opacity="1" font-family="Segoe UI Light,Segoe UI Light_MSFontService,sans-serif" font-style="normal" font-variant="normal" font-weight="300" font-stretch="normal" font-size="1095" text-anchor="start" direction="ltr" writing-mode="lr-tb" unicode-bidi="normal" text-decoration="none" transform="matrix(1 0 0 1 11824.4 -1940)">1</text><path d="M8820.5-4854.5 8817.45-4808.33 8808.5-4763.5 8820.5-4854.5Z" stroke="#0D0D0D" stroke-width="36.6667" stroke-linecap="butt" stroke-linejoin="miter" stroke-miterlimit="8" stroke-opacity="1" fill="#FFFFFF" fill-rule="evenodd" fill-opacity="1"/><path d="M8786.5-4854.5 8783.45-4808.33 8774.5-4763.5 8786.5-4854.5Z" stroke="#0D0D0D" stroke-width="36.6667" stroke-linecap="butt" stroke-linejoin="miter" stroke-miterlimit="8" stroke-opacity="1" fill="#FFFFFF" fill-rule="evenodd" fill-opacity="1"/><path d="M8797.5-4866.5 8794.45-4820.33 8785.5-4775.5 8797.5-4866.5Z" stroke="#0D0D0D" stroke-width="36.6667" stroke-linecap="butt" stroke-linejoin="miter" stroke-miterlimit="8" stroke-opacity="1" fill="#FFFFFF" fill-rule="evenodd" fill-opacity="1"/><path d="M8797.5-4866.5 8794.45-4820.33 8785.5-4775.5 8797.5-4866.5Z" stroke="#0D0D0D" stroke-width="36.6667" stroke-linecap="butt" stroke-linejoin="miter" stroke-miterlimit="8" stroke-opacity="1" fill="#FFFFFF" fill-rule="evenodd" fill-opacity="1"/><path d="M-13518.5-3362.5-9440.13-3362.5-9440.13 696.701-8949.5 696.701-8949.5 5486.14-9423.14 5486.14-9423.14 7125.5-13518.5 7125.5-13518.5 2574.93-13518.5 2574.93-13518.5-76.5621-13514.7-76.0507C-13477.4-76.0507-13443.6-116.843-13419.2-182.796L-13417.8-187.275-11473.1-187.275-11494.9-206.015C-11559.3-267.508-11598.9-351.599-11598.9-444.332-11598.9-550.313-11547.1-645.007-11465.9-707.579L-11459-712.392-13425-712.392-13428.8-721.732C-13452.1-773.723-13482.1-804.955-13514.7-804.955L-13518.5-804.444Z" stroke="#0D0D0D" stroke-width="36.6667" stroke-linecap="butt" stroke-linejoin="miter" stroke-miterlimit="8" stroke-opacity="1" fill="#D9D9D9" fill-rule="evenodd" fill-opacity="1"/><path d="M-8859.06-211.38-8850.78-210.454C-8840.36-193.094-8839.08-141.589-8850.95-177.159ZM-9452.78-3369.5C-9448.08-3361.31-9408.59-3335.82-9403.9-3327.63-9189.32-3203.39-9051.03-2460.87-8972.81-1690.27L-8962.83-1583.81-8953-1583.81-8953-1478.86-8951.12-1458.83C-8917.94-1073.67-8899.36-696.242-8893.37-400.317-8882.98-331.802-8874.36-281.94-8867.33-246.244L-8859.06-211.38-8864.09-211.942C-8874.81-199.36-8889-153.644-8905.47-38.8758-8930.19 133.277-8940.26 198.636-8947.78 234.945L-8953 256.541-8953 6589.83-8954.03 6589.83-8948.23 6597.29-9422.22 7117.5-9421.57 6589.83-9423.19 6589.83-9423.19 351.299-9473.5-81.8635-9452.84-368.447C-9452.82-1368.8-9452.8-2369.15-9452.78-3369.5Z" stroke="#0D0D0D" stroke-width="36.6667" stroke-linecap="butt" stroke-linejoin="miter" stroke-miterlimit="8" stroke-opacity="1" fill="#D0CECE" fill-rule="evenodd" fill-opacity="1"/><path d="M-10790.3-1581.5-10076.4-1581.5-10076.4-1581.5-10076.4-1581.5-10065.7-1581.5-10065.7-1579.29-10053.9-1576.86C-9943.19-1530.81-9856.77-1147.86-9856.77-682.26L-9858.57-584.336-9856.96-558.671C-9854.04-500.133-9852.5-439.524-9852.5-377.446-9852.5-315.367-9854.04-254.754-9856.96-196.22L-9861.57-122.824-9862.16-74.7974C-9872.71 350.307-9955.58 687.879-10059.6 728.413L-10065.7 729.607-10065.7 732.5-10080.7 732.5-10790.3 732.5-10790.3-72.6505-13535.5-72.6505-13526.4-79.3361C-13418.8-166.246-13350.3-297.773-13350.3-444.977-13350.3-573.781-13402.8-690.581-13487.9-775.993L-13516.8-802.021-10790.3-802.021Z" stroke="#0D0D0D" stroke-width="36.6667" stroke-linecap="butt" stroke-linejoin="miter" stroke-miterlimit="8" stroke-opacity="1" fill="#FFFFFF" fill-rule="evenodd" fill-opacity="1"/><path d="M-9441.5-2642.5C-9381.44-2585.04-9327.38-2581.56-9261.33-2470.11-9067.51-1797.76-8963.5-1110.72-8988.05-415.289-9012.59 280.145-9018.42 1345.02-9408.6 1702.5-9409.11 1517.89-9416.63 1298.3-9417.14 1113.7L-9441.5-2642.5Z" stroke="#0D0D0D" stroke-width="36.6667" stroke-linecap="butt" stroke-linejoin="miter" stroke-miterlimit="8" stroke-opacity="1" fill="#C2BFBF" fill-rule="evenodd" fill-opacity="1"/><path d="M-9425.5-2087.5C-9318.12-2017.33-9330.45-2019.13-9296.51-1944.81-9197.04-1578.94-9134.35-938.783-9135.52-444.44-9136.69 49.9032-9154.93 655.378-9303.53 1021.25L-9409.27 1219.5-9425.5-2087.5Z" stroke="#0D0D0D" stroke-width="36.6667" stroke-linecap="butt" stroke-linejoin="miter" stroke-miterlimit="8" stroke-opacity="1" fill="#AFABAB" fill-rule="evenodd" fill-opacity="1"/><path d="M-10547.5-2626.5-9422.5-2626.5-9422.5 1719.5-10547.5 1719.5-10547.5-2626.5Z" stroke="#0D0D0D" stroke-width="36.6667" stroke-linecap="butt" stroke-linejoin="miter" stroke-miterlimit="8" stroke-opacity="1" fill="#C2BFBF" fill-rule="evenodd" fill-opacity="1"/><path d="M257.812-1.96605 257.812 276.083 324.83 280.876 387.061 309.64 439.719 347.992 482.802 400.724 506.738 463.046 516.311 530.16 506.738 597.276 482.802 659.598 439.719 712.33 387.061 755.477 324.83 779.447 257.812 789.034 190.793 779.447 128.561 755.477 75.9037 712.33 37.6068 659.598 8.88501 597.276-0.689034 530.16 8.88501 463.046 37.6068 400.724 75.9037 347.992 128.561 309.64 190.793 280.876 257.812 276.083" stroke="#0D0D0D" stroke-width="36.6667" stroke-linecap="round" stroke-linejoin="round" stroke-miterlimit="10" stroke-opacity="1" fill="#D9D9D9" fill-rule="evenodd" fill-opacity="1" transform="matrix(-1.83697e-16 -1 -1 1.83697e-16 -9489.5 1495.5)"/><path d="M258.31-1.96605 258.31 276.083 325.458 280.876 387.81 309.64 440.569 347.992 483.736 400.724 507.718 463.046 517.31 530.16 507.718 597.276 483.736 659.598 440.569 712.33 387.81 755.477 325.458 779.447 258.31 789.034 191.162 779.447 128.809 755.477 76.0505 712.33 37.6795 659.598 8.9022 597.276-0.690367 530.16 8.9022 463.046 37.6795 400.724 76.0505 347.992 128.809 309.64 191.162 280.876 258.31 276.083" stroke="#0D0D0D" stroke-width="36.6667" stroke-linecap="round" stroke-linejoin="round" stroke-miterlimit="10" stroke-opacity="1" fill="#D9D9D9" fill-rule="evenodd" fill-opacity="1" transform="matrix(-1.83697e-16 -1 -1 1.83697e-16 -9489.5 -1830.5)"/><path d="M-10810.5-68.4999-10801.3-75.1822C-10693.3-162.048-10624.5-293.509-10624.5-440.637-10624.5-569.376-10677.2-686.117-10762.7-771.485L-10791.7-797.5" stroke="#0D0D0D" stroke-width="36.6667" stroke-linecap="butt" stroke-linejoin="miter" stroke-miterlimit="8" stroke-opacity="1" fill="none" fill-rule="evenodd"/><path d="M-4377.6-6237.5 9870.84-6237.5 9870.84-3336.15 9991.52-3336.15 10982.9-3336.15 10982.9-2606.67 9991.52-2606.67 9870.84-2606.67 9870.84-1554.29 9882.88-1554.29 9991.52-1554.29 15486.5-1554.29 15486.5-783.74 9991.52-783.74 9882.88-783.74 9870.84-783.74 9870.84-54.2593 9882.88-54.2593 9991.52-54.2593 15486.5-54.2593 15486.5 702.186 9882.88 701.03 9882.88 701.007 9870.84 701.004 9870.84 1750.96 9991.52 1750.96 11020 1750.96 11020 2480.44 9991.52 2480.44 9870.84 2480.44 9870.84 5399.5-4377.6 5399.5-4377.6 2480.44-4499.48 2480.44-5504.57 2480.44-5504.57 1750.96-4499.48 1750.96-4377.6 1750.96-4377.6 701.004-4499.48 701.004-7573.89 701.004-7639.02 701.004-10730.5 701.004-10730.5-54.2593-7639.02-54.2593-4499.48-54.2593-4377.6-54.2593-4377.6-783.74-4499.48-783.74-7573.89-783.74-7573.89-783.739-8023.4-783.739-8023.4-794.418-10730.5-794.418-10730.5-1554.29-7639.02-1554.29-7639.02-1554.29-4499.48-1554.29-4377.6-1554.29-4377.6-2606.67-4499.48-2606.67-5512.94-2606.67-5512.94-3362.53-4377.6-3362.53Z" stroke="#000000" stroke-width="36.6667" stroke-linecap="butt" stroke-linejoin="miter" stroke-miterlimit="8" stroke-opacity="1" fill="#B2AFAF" fill-rule="evenodd" fill-opacity="1"/><path d="M8797.04-4866.16 8784.89-4775.02 8793.95-4819.92ZM-2199.85-5293.6C-2753.05-5293.6-3217.86-5016.22-3349.62-4640.84L-3354.69-4624.7-3354.69-775.841-3180.3-775.841-3180.3-81.3754-3354.69-81.3754-3354.69 3723.83-3345.13 3749.07C-3315.3 3814.1-3262.54 3872.29-3193.26 3919.27L-3180.78 3926.96-3169.92 3940.07C-2956.58 4171.55-2595.3 4323.75-2185.53 4323.75-2144.55 4323.75-2104.06 4322.23-2064.15 4319.26L-2027.5 4315.16-1980.4 4321.45C-1963.31 4322.97-1945.97 4323.75-1928.41 4323.75L-1928.41 4323.75 7200.25 4323.75 7200.27 4323.75 7200.28 4323.75 7217.08 4323.75 7217.08 4323.01 7252.26 4321.45C7284.3 4318.6 7315.47 4313.15 7345.48 4305.33L7379.09 4295.07 7437.45 4306.07C7514.73 4317.66 7594.75 4323.75 7676.71 4323.75 8086.48 4323.75 8447.76 4171.55 8661.1 3940.07L8690.15 3905.01 8690.39 3904.84C8752.18 3858.74 8798.89 3803.17 8825.23 3741.72L8837.49 3707.18 8837.49-4598.5 8825.24-4633.04C8819.97-4645.33 8813.89-4657.38 8807.03-4669.17L8789-4696.44 8756.22-4762.09C8576.01-5074.44 8154.11-5293.6 7662.38-5293.6 7570.18-5293.6 7480.44-5285.89 7394.28-5271.31L7372.99-5266.78 7345.48-5275.18C7315.47-5282.99 7284.31-5288.45 7252.26-5291.3L7217.08-5292.86 7217.08-5293.6 7200.27-5293.6-1928.41-5293.6-1928.41-5293.6-1980.4-5291.3C-1996.42-5289.88-2012.23-5287.8-2027.78-5285.1L-2030.67-5284.48-2063.53-5287.92C-2108.27-5291.67-2153.75-5293.6-2199.85-5293.6ZM-2538.8-5794.5-2392.48-5788.21-2357.21-5784.39-2354.1-5785.09C-2337.41-5788.07-2320.45-5790.37-2303.25-5791.95L-2247.45-5794.5 7550.9-5794.5 7568.95-5794.5 7568.95-5793.68 7606.7-5791.95C7641.1-5788.79 7674.56-5782.75 7706.77-5774.09L7736.3-5764.79 7759.15-5769.81C7851.62-5785.96 7947.95-5794.5 8046.91-5794.5 8574.71-5794.5 9027.56-5551.71 9221-5205.7L9256.19-5132.97 9275.54-5102.76C9282.89-5089.7 9289.42-5076.35 9295.08-5062.74L9308.23-5024.47 9309.38-5021.14C9317.09-4992.94 9321.14-4963.81 9321.14-4934.03 9321.14-4918.15 9319.99-4902.45 9317.74-4886.98L9317.45-4885.65 9321.14-4830.44 9319.67-4808.48 9321.14-4808.48 9321.14-1759.25 9831.52-1759.25 9831.52-1565.63 9321.14-1565.63 9321.14-793.889 15483.5-793.889 15483.5-64.3986 9321.14-64.3986 9321.14 700.379 9846.9 700.379 9846.9 893.99 9321.14 893.99 9321.14 3753.27 9329.94 3796.88C9334.28 3829.29 9336.51 3862.17 9336.51 3895.45 9336.51 3928.72 9334.28 3961.61 9329.94 3994.02L9321.14 4037.63 9321.14 4083.08 9320.92 4083.08 9321.14 4086.03C9321.14 4115.81 9317.09 4144.94 9309.37 4173.14L9308.23 4176.47 9308.23 4176.47 9295.08 4214.74C9266.8 4282.81 9216.67 4344.36 9150.34 4395.44L9150.08 4395.62 9118.9 4434.46C8889.91 4690.9 8502.12 4859.5 8062.29 4859.5 7974.32 4859.5 7888.44 4852.76 7805.49 4839.91L7742.85 4827.73 7706.77 4839.09C7674.56 4847.75 7641.1 4853.8 7606.7 4856.95L7568.95 4858.68 7568.95 4859.5 7550.92 4859.5 7550.9 4859.5 7550.88 4859.5-2247.44 4859.5-2247.45 4859.5C-2266.29 4859.5-2284.9 4858.64-2303.25 4856.95L-2353.81 4849.98-2393.14 4854.52C-2435.98 4857.81-2479.44 4859.5-2523.43 4859.5-2963.26 4859.5-3351.04 4690.9-3580.03 4434.46L-3591.69 4419.94-3605.08 4411.42C-3679.44 4359.37-3736.07 4294.92-3768.09 4222.87L-3778.36 4194.92-3784.29 4178.77C-3793.05 4148.82-3797.65 4117.8-3797.65 4086.03-3797.58 4085.05-3797.51 4084.06-3797.43 4083.07L-3797.65 4083.07-3797.65 3895.44-3797.65 893.99-4366.93 893.99-4366.93 700.379-3797.65 700.379-3797.65-64.3986-7639.2-64.9797-7639.2-65.0735-8015.91-65.1305-8015.91-65.1323-10706.8-65.5391-10706.8-100.24-10701-105.535C-10615.8-190.96-10563.3-307.78-10563.3-436.604-10563.3-565.428-10615.8-682.248-10700.9-767.674L-10706.8-772.971-10706.8-793.707-10719.5-793.707-10719.5-793.889-7639.2-793.889-7574.08-793.889-3797.65-793.889-3797.65-1565.63-4382.31-1565.63-4382.31-1759.25-3797.65-1759.25-3797.65-4688.27-3806.45-4731.87C-3810.8-4764.28-3813.02-4797.17-3813.02-4830.44-3813.02-4897-3804.11-4961.98-3787.14-5024.73L-3778.36-5053.5-3772.91-5071.38C-3631.49-5487.22-3132.58-5794.5-2538.8-5794.5Z" stroke="#000000" stroke-width="36.6667" stroke-linecap="butt" stroke-linejoin="miter" stroke-miterlimit="8" stroke-opacity="1" fill="#FFFFFF" fill-rule="evenodd" fill-opacity="1"/><path d="M-226-6707C-226-7104.65 96.579-7427 494.5-7427 892.421-7427 1215-7104.65 1215-6707 1215-6309.35 892.421-5987 494.5-5987 96.579-5987-226-6309.35-226-6707Z" stroke="#000000" stroke-width="45.8333" stroke-linecap="butt" stroke-linejoin="miter" stroke-miterlimit="8" stroke-opacity="1" fill="none" fill-rule="evenodd"/><text fill="#0B488B" fill-opacity="1" font-family="Segoe UI Light,Segoe UI Light_MSFontService,sans-serif" font-style="normal" font-variant="normal" font-weight="300" font-stretch="normal" font-size="1095" text-anchor="start" direction="ltr" writing-mode="lr-tb" unicode-bidi="normal" text-decoration="none" transform="matrix(1 0 0 1 269.852 -6345)">6</text><path d="M48.125-3.2453e-06 48.125 770-48.125 770-48.125 3.2453e-06ZM48.1251 1058.75 48.1251 1155-48.1249 1155-48.1249 1058.75ZM48.1251 1443.75 48.1251 2213.75-48.1249 2213.75-48.1249 1443.75ZM48.1252 2502.5 48.1252 2598.75-48.1248 2598.75-48.1248 2502.5ZM48.1252 2887.5 48.1252 3657.5-48.1248 3657.5-48.1248 2887.5ZM48.1253 3946.25 48.1253 4042.5-48.1247 4042.5-48.1247 3946.25ZM48.1253 4331.25 48.1253 5101.25-48.1247 5101.25-48.1247 4331.25ZM144.375 5062.97 0.000360892 5351.72-144.375 5062.97Z" fill="#7F7F7F" fill-rule="nonzero" fill-opacity="1" transform="matrix(1 0 0 -1 1164 -425.276)"/><text fill="#0B488B" fill-opacity="1" font-family="Segoe UI Light,Segoe UI Light_MSFontService,sans-serif" font-style="normal" font-variant="normal" font-weight="300" font-stretch="normal" font-size="1095" text-anchor="start" direction="ltr" writing-mode="lr-tb" unicode-bidi="normal" text-decoration="none" transform="matrix(1 0 0 1 290.015 -3940)">r</text><text fill="#0B488B" fill-opacity="1" font-family="Segoe UI Light,Segoe UI Light_MSFontService,sans-serif" font-style="normal" font-variant="normal" font-weight="300" font-stretch="normal" font-size="730" text-anchor="start" direction="ltr" writing-mode="lr-tb" unicode-bidi="normal" text-decoration="none" transform="matrix(1 0 0 1 651.525 -3667)">2</text><path d="M-2606.5-7729.5-2606.5-6315.21" stroke="#7F7F7F" stroke-width="79.0625" stroke-linecap="butt" stroke-linejoin="miter" stroke-miterlimit="8" stroke-opacity="1" fill="none" fill-rule="evenodd"/><path d="M7745.5-7716.5 7745.5-6302.21" stroke="#7F7F7F" stroke-width="79.0625" stroke-linecap="butt" stroke-linejoin="miter" stroke-miterlimit="8" stroke-opacity="1" fill="none" fill-rule="evenodd"/><path d="M1804-2516C1804-2913.65 2126.58-3236 2524.5-3236 2922.42-3236 3245-2913.65 3245-2516 3245-2118.35 2922.42-1796 2524.5-1796 2126.58-1796 1804-2118.35 1804-2516Z" stroke="#000000" stroke-width="45.8333" stroke-linecap="butt" stroke-linejoin="miter" stroke-miterlimit="8" stroke-opacity="1" fill="none" fill-rule="evenodd"/><text fill="#0B488B" fill-opacity="1" font-family="Segoe UI Light,Segoe UI Light_MSFontService,sans-serif" font-style="normal" font-variant="normal" font-weight="300" font-stretch="normal" font-size="1095" text-anchor="start" direction="ltr" writing-mode="lr-tb" unicode-bidi="normal" text-decoration="none" transform="matrix(1 0 0 1 2299.81 -2154)">5</text><path d="M-2337-485.125-761.799-485.125-761.799-388.875-2337-388.875ZM-809.924-581.375-521.174-437-809.924-292.625Z" fill="#FFFFFF" fill-rule="nonzero" fill-opacity="1"/><path d="M48.125-8.80374e-06 48.1253 1732.17-48.1247 1732.17-48.125 8.80374e-06ZM144.375 1684.04 0.000360892 1972.79-144.375 1684.04Z" fill="#FFFFFF" fill-rule="nonzero" fill-opacity="1" transform="matrix(1 0 0 -1 -2337 -437.209)"/><text fill="#FFFFFF" fill-opacity="1" font-family="Segoe UI Light,Segoe UI Light_MSFontService,sans-serif" font-style="normal" font-variant="normal" font-weight="300" font-stretch="normal" font-size="1095" text-anchor="start" direction="ltr" writing-mode="lr-tb" unicode-bidi="normal" text-decoration="none" transform="matrix(1 0 0 1 -2225.72 -2324)">r</text><path d="M48.125-3.54496e-06 48.1251 770-48.1249 770-48.125 3.54496e-06ZM48.1251 1058.75 48.1251 1155-48.1249 1155-48.1249 1058.75ZM48.1251 1443.75 48.1252 2213.75-48.1248 2213.75-48.1249 1443.75ZM48.1252 2502.5 48.1252 2598.75-48.1248 2598.75-48.1248 2502.5ZM48.1252 2887.5 48.1253 3657.5-48.1247 3657.5-48.1248 2887.5ZM48.1253 3946.25 48.1253 4042.5-48.1247 4042.5-48.1247 3946.25ZM48.1253 4331.25 48.1253 4658.7-48.1247 4658.7-48.1247 4331.25ZM144.375 4610.58 0.000360892 4899.33-144.375 4610.58Z" fill="#7F7F7F" fill-rule="nonzero" fill-opacity="1" transform="matrix(1 0 0 -1 1621 -425.669)"/><text fill="#0B488B" fill-opacity="1" font-family="Segoe UI Light,Segoe UI Light_MSFontService,sans-serif" font-style="normal" font-variant="normal" font-weight="300" font-stretch="normal" font-size="1095" text-anchor="start" direction="ltr" writing-mode="lr-tb" unicode-bidi="normal" text-decoration="none" transform="matrix(1 0 0 1 1787.41 -3943)">r</text><text fill="#0B488B" fill-opacity="1" font-family="Segoe UI Light,Segoe UI Light_MSFontService,sans-serif" font-style="normal" font-variant="normal" font-weight="300" font-stretch="normal" font-size="730" text-anchor="start" direction="ltr" writing-mode="lr-tb" unicode-bidi="normal" text-decoration="none" transform="matrix(1 0 0 1 2148.92 -3670)">1</text><path d="M0 0 956.443 8.15039" stroke="#0D0D0D" stroke-width="36.6667" stroke-linecap="butt" stroke-linejoin="miter" stroke-miterlimit="8" stroke-opacity="1" fill="none" fill-rule="evenodd" transform="matrix(-1 0 0 1 9795.94 706.5)"/><path d="M0 0 956.443 8.15039" stroke="#0D0D0D" stroke-width="36.6667" stroke-linecap="butt" stroke-linejoin="miter" stroke-miterlimit="8" stroke-opacity="1" fill="none" fill-rule="evenodd" transform="matrix(-1 0 0 1 9792.94 -1553.5)"/><rect x="8952.5" y="-56.4999" width="220" height="763" stroke="#0D0D0D" stroke-width="36.6667" stroke-linecap="butt" stroke-linejoin="miter" stroke-miterlimit="8" stroke-opacity="1" fill="#FFFFFF" fill-opacity="1"/><rect x="8931.5" y="-1547.5" width="241" height="751" stroke="#0D0D0D" stroke-width="36.6667" stroke-linecap="butt" stroke-linejoin="miter" stroke-miterlimit="8" stroke-opacity="1" fill="#FFFFFF" fill-opacity="1"/><path d="M0 0 956.443 8.15039" stroke="#0D0D0D" stroke-width="36.6667" stroke-linecap="butt" stroke-linejoin="miter" stroke-miterlimit="8" stroke-opacity="1" fill="none" fill-rule="evenodd" transform="matrix(1 -1.22465e-16 -1.22465e-16 -1 -4334.5 714.65)"/><path d="M0 0 956.443 8.15039" stroke="#0D0D0D" stroke-width="36.6667" stroke-linecap="butt" stroke-linejoin="miter" stroke-miterlimit="8" stroke-opacity="1" fill="none" fill-rule="evenodd" transform="matrix(1 -1.22465e-16 -1.22465e-16 -1 -4353.5 -777.35)"/><rect x="-3724.5" y="-1571.5" width="241" height="802" stroke="#0D0D0D" stroke-width="36.6667" stroke-linecap="butt" stroke-linejoin="miter" stroke-miterlimit="8" stroke-opacity="1" fill="#FFFFFF" fill-opacity="1"/><rect x="-3713.5" y="-41.5001" width="241" height="750" stroke="#0D0D0D" stroke-width="36.6667" stroke-linecap="butt" stroke-linejoin="miter" stroke-miterlimit="8" stroke-opacity="1" fill="#FFFFFF" fill-opacity="1"/><path d="M0 0 956.443 8.15039" stroke="#0D0D0D" stroke-width="36.6667" stroke-linecap="butt" stroke-linejoin="miter" stroke-miterlimit="8" stroke-opacity="1" fill="none" fill-rule="evenodd" transform="matrix(1 -1.22465e-16 -1.22465e-16 -1 -4185.5 -56.3497)"/><path d="M0 0 1020.96 8.70003" stroke="#0D0D0D" stroke-width="36.6667" stroke-linecap="butt" stroke-linejoin="miter" stroke-miterlimit="8" stroke-opacity="1" fill="none" fill-rule="evenodd" transform="matrix(1 0 0 -1 -4384.5 -1576.8)"/><path d="M0 0 956.443 8.15039" stroke="#0D0D0D" stroke-width="36.6667" stroke-linecap="butt" stroke-linejoin="miter" stroke-miterlimit="8" stroke-opacity="1" fill="none" fill-rule="evenodd" transform="matrix(-1 0 0 1 9780.94 -61.5)"/><path d="M0 0 956.443 8.15039" stroke="#0D0D0D" stroke-width="36.6667" stroke-linecap="butt" stroke-linejoin="miter" stroke-miterlimit="8" stroke-opacity="1" fill="none" fill-rule="evenodd" transform="matrix(-1 0 0 1 9795.94 -790.5)"/><path d="M-3107-410 8599.36-410" stroke="#7F7F7F" stroke-width="77.9167" stroke-linecap="butt" stroke-linejoin="miter" stroke-miterlimit="8" stroke-dasharray="623.333 233.75 77.9167 233.75 77.9167 233.75" stroke-opacity="1" fill="none" fill-rule="evenodd"/><text fill="#FFFFFF" fill-opacity="1" font-family="Segoe UI Light,Segoe UI Light_MSFontService,sans-serif" font-style="normal" font-variant="normal" font-weight="300" font-stretch="normal" font-size="1095" text-anchor="start" direction="ltr" writing-mode="lr-tb" unicode-bidi="normal" text-decoration="none" transform="matrix(1 0 0 1 -329.368 -563)">x</text><path d="M15499.5-44.4998 15499.5-74.3041 15512.6-85.6676C15601-171.049 15655.5-287.812 15655.5-416.573 15655.5-545.334 15601-662.096 15512.6-747.479L15499.5-758.843 15499.5-773.5" stroke="#000000" stroke-width="36.6667" stroke-linecap="butt" stroke-linejoin="miter" stroke-miterlimit="8" stroke-opacity="1" fill="#FFFFFF" fill-rule="evenodd" fill-opacity="1"/><rect x="14693" y="-757" width="805" height="648" fill="#FFFFFF" fill-opacity="1"/><rect x="14687" y="-259" width="805" height="150" fill="#FFFFFF" fill-opacity="1"/><rect x="14673" y="-137" width="806" height="55" fill="#FFFFFF" fill-opacity="1"/><path d="M15546.5-59.4111 15555.2-66.5947C15657.7-159.359 15718.9-294.511 15710.7-441.508 15703.5-570.131 15644.6-683.851 15554.9-764.41L15524.6-788.796" stroke="#0D0D0D" stroke-width="36.6667" stroke-linecap="butt" stroke-linejoin="miter" stroke-miterlimit="8" stroke-opacity="1" fill="none" fill-rule="evenodd"/><path d="M15538.5-1568.5 15538.5-790.518" stroke="#000000" stroke-width="36.6667" stroke-linecap="butt" stroke-linejoin="miter" stroke-miterlimit="8" stroke-opacity="1" fill="none" fill-rule="evenodd"/><path d="M15527.5-63.5001 15527.5 714.481" stroke="#000000" stroke-width="36.6667" stroke-linecap="butt" stroke-linejoin="miter" stroke-miterlimit="8" stroke-opacity="1" fill="none" fill-rule="evenodd"/><path d="M0 0 100.469 0.000360892" stroke="#000000" stroke-width="36.6667" stroke-linecap="butt" stroke-linejoin="miter" stroke-miterlimit="8" stroke-opacity="1" fill="none" fill-rule="evenodd" transform="matrix(-1 0 0 1 15554 -1553.5)"/><path d="M0 0 100.469 0.000360892" stroke="#000000" stroke-width="36.6667" stroke-linecap="butt" stroke-linejoin="miter" stroke-miterlimit="8" stroke-opacity="1" fill="none" fill-rule="evenodd" transform="matrix(-1 0 0 1 15545 704.5)"/><path d="M16042.5-486.167 19442.4-486.166 19442.4-412.833 16042.5-412.833ZM19405.7-559.5 19625.7-449.5 19405.7-339.5Z" fill="#0B488B" fill-rule="nonzero" fill-opacity="1"/><path d="M9194.5-449.5 18429.1-449.5" stroke="#0B488B" stroke-width="73.3333" stroke-linecap="butt" stroke-linejoin="miter" stroke-miterlimit="8" stroke-dasharray="293.333 220" stroke-opacity="1" fill="none" fill-rule="evenodd"/><path d="M1499.5 4622.83 4300.38 4622.83 4300.38 4696.17 1499.5 4696.17ZM4263.71 4549.5 4483.71 4659.5 4263.71 4769.5Z" fill="#0B488B" fill-rule="nonzero" fill-opacity="1"/><path d="M-3545.83 2553.5-3545.83 3237.23-3619.17 3237.23-3619.17 2553.5ZM-3472.5 3200.56-3582.5 3420.56-3692.5 3200.56Z" fill="#0B488B" fill-rule="nonzero" fill-opacity="1"/><path d="M9124.17-2511.5 9124.17-1843.07 9050.83-1843.07 9050.83-2511.5ZM9197.5-1879.73 9087.5-1659.73 8977.5-1879.73Z" fill="#0B488B" fill-rule="nonzero" fill-opacity="1"/><path d="M36.6667-1.56384e-05 36.667 662.837-36.6664 662.837-36.6667 1.56384e-05ZM110 626.17 0.000360892 846.17-110 626.17Z" fill="#0B488B" fill-rule="nonzero" fill-opacity="1" transform="matrix(1 0 0 -1 9078.5 1918.67)"/><path d="M-2190.5 4659.5 773.275 4659.5" stroke="#0B488B" stroke-width="73.3333" stroke-linecap="butt" stroke-linejoin="miter" stroke-miterlimit="8" stroke-dasharray="293.333 220" stroke-opacity="1" fill="none" fill-rule="evenodd"/><path d="M5191.5 4676.5 8155.27 4676.5" stroke="#0B488B" stroke-width="73.3333" stroke-linecap="butt" stroke-linejoin="miter" stroke-miterlimit="8" stroke-dasharray="293.333 220" stroke-opacity="1" fill="none" fill-rule="evenodd"/><path d="M-3582.5-423.5-3582.5 2448.71" stroke="#0B488B" stroke-width="73.3333" stroke-linecap="butt" stroke-linejoin="miter" stroke-miterlimit="8" stroke-dasharray="293.333 220" stroke-opacity="1" fill="none" fill-rule="evenodd"/><path d="M9087.5-4418.5 9087.5 1205.54" stroke="#0B488B" stroke-width="73.3333" stroke-linecap="butt" stroke-linejoin="miter" stroke-miterlimit="8" stroke-dasharray="293.333 220" stroke-opacity="1" fill="none" fill-rule="evenodd"/><path d="M9087.5 2146.5 9087.5 3075.91" stroke="#0B488B" stroke-width="73.3333" stroke-linecap="butt" stroke-linejoin="miter" stroke-miterlimit="8" stroke-dasharray="293.333 220" stroke-opacity="1" fill="none" fill-rule="evenodd"/><path d="M0 1885.68 19.2812 1868.4C246.397 1643.7 391.163 1303.66 391.163 923.085 391.163 590.082 280.33 288.112 100.469 67.293L39.4436 0" stroke="#0B488B" stroke-width="73.3333" stroke-linecap="butt" stroke-linejoin="miter" stroke-miterlimit="8" stroke-dasharray="293.333 220" stroke-opacity="1" fill="none" fill-rule="evenodd" transform="matrix(0.719553 0.694437 0.694437 -0.719553 7805.77 4642.38)"/><path d="M-14042.5-512.167-9883.99-512.166-9883.99-438.833-14042.5-438.833ZM-9920.66-585.5-9700.66-475.5-9920.66-365.5Z" fill="#0B488B" fill-rule="nonzero" fill-opacity="1"/><path d="M-12926.5-449.5-3691.87-449.5" stroke="#0B488B" stroke-width="73.3333" stroke-linecap="butt" stroke-linejoin="miter" stroke-miterlimit="8" stroke-dasharray="293.333 220" stroke-opacity="1" fill="none" fill-rule="evenodd"/><path d="M1610.5-5599.17 4167.23-5599.17 4167.23-5525.83 1610.5-5525.83ZM4130.56-5672.5 4350.56-5562.5 4130.56-5452.5Z" fill="#0B488B" fill-rule="nonzero" fill-opacity="1"/><path d="M-2190.5-5579.5 773.275-5579.5" stroke="#0B488B" stroke-width="73.3333" stroke-linecap="butt" stroke-linejoin="miter" stroke-miterlimit="8" stroke-dasharray="293.333 220" stroke-opacity="1" fill="none" fill-rule="evenodd"/><path d="M5191.5-5562.5 8155.27-5562.5" stroke="#0B488B" stroke-width="73.3333" stroke-linecap="butt" stroke-linejoin="miter" stroke-miterlimit="8" stroke-dasharray="293.333 220" stroke-opacity="1" fill="none" fill-rule="evenodd"/><path d="M-3561.5-2616.5-3561.5-423.957" stroke="#0B488B" stroke-width="73.3333" stroke-linecap="butt" stroke-linejoin="miter" stroke-miterlimit="8" stroke-dasharray="293.333 220" stroke-opacity="1" fill="none" fill-rule="evenodd"/><path d="M0 1885.68 23.5987 1868.4C301.57 1643.7 478.752 1303.66 478.752 923.085 478.752 590.082 343.101 288.112 122.966 67.293L48.2758 0" stroke="#0B488B" stroke-width="73.3333" stroke-linecap="butt" stroke-linejoin="miter" stroke-miterlimit="8" stroke-dasharray="293.333 220" stroke-opacity="1" fill="none" fill-rule="evenodd" transform="matrix(0.744169 -0.667991 -0.667991 -0.744169 9040.01 -4164.81)"/><path d="M0 1755 22.6984 1738.91C290.065 1529.79 460.488 1213.31 460.488 859.114 460.488 549.188 330.011 268.145 118.275 62.6295L46.4341 0" stroke="#0B488B" stroke-width="73.3333" stroke-linecap="butt" stroke-linejoin="miter" stroke-miterlimit="8" stroke-dasharray="293.333 220" stroke-opacity="1" fill="none" fill-rule="evenodd" transform="matrix(-0.715908 -0.698195 -0.698195 0.715908 -2378.56 -5549.77)"/><path d="M36.6667-7.72503e-06 36.667 1529.63-36.6663 1529.63-36.6667 7.72503e-06ZM110 1492.97 0.000360892 1712.97-110 1492.97Z" fill="#0B488B" fill-rule="nonzero" fill-opacity="1" transform="matrix(1 0 0 -1 -3582.5 -2839.53)"/><path d="M0 1454.93 18.7633 1441.6C239.778 1268.23 380.656 1005.86 380.656 712.224 380.656 455.289 272.799 222.298 97.77 51.9212L38.3841 0" stroke="#0B488B" stroke-width="73.3333" stroke-linecap="butt" stroke-linejoin="miter" stroke-miterlimit="8" stroke-dasharray="293.333 220" stroke-opacity="1" fill="none" fill-rule="evenodd" transform="matrix(-0.764057 0.645149 0.645149 0.764057 -3453.09 3547.16)"/><text fill="#0B488B" fill-opacity="1" font-family="Segoe UI Light,Segoe UI Light_MSFontService,sans-serif" font-style="normal" font-variant="normal" font-weight="300" font-stretch="normal" font-size="1095" text-anchor="start" direction="ltr" writing-mode="lr-tb" unicode-bidi="normal" text-decoration="none" transform="matrix(1 0 0 1 19385.3 -741)">Aerosol </text><text fill="#0B488B" fill-opacity="1" font-family="Segoe UI Light,Segoe UI Light_MSFontService,sans-serif" font-style="normal" font-variant="normal" font-weight="300" font-stretch="normal" font-size="1095" text-anchor="start" direction="ltr" writing-mode="lr-tb" unicode-bidi="normal" text-decoration="none" transform="matrix(1 0 0 1 19385.3 574)">outlet</text><path d="M-2528.22-7927.03-1895.72-7927.03-1895.72-7847.97-2528.22-7847.97ZM-1658.54-7927.03-1579.47-7927.03-1579.47-7847.97-1658.54-7847.97ZM-1342.29-7927.03-709.787-7927.03-709.787-7847.97-1342.29-7847.97ZM-472.6-7927.03-393.537-7927.03-393.537-7847.97-472.6-7847.97ZM-156.35-7927.03 476.15-7927.03 476.15-7847.97-156.35-7847.97ZM713.338-7927.03 792.4-7927.03 792.4-7847.97 713.338-7847.97ZM1029.59-7927.03 1662.09-7927.03 1662.09-7847.97 1029.59-7847.97ZM1899.28-7927.03 1978.34-7927.03 1978.34-7847.97 1899.28-7847.97ZM2215.53-7927.03 2848.03-7927.03 2848.03-7847.97 2215.53-7847.97ZM3085.21-7927.03 3164.28-7927.03 3164.28-7847.97 3085.21-7847.97ZM3401.46-7927.03 4033.96-7927.03 4033.96-7847.97 3401.46-7847.97ZM4271.15-7927.03 4350.21-7927.03 4350.21-7847.97 4271.15-7847.97ZM4587.4-7927.03 5219.9-7927.03 5219.9-7847.97 4587.4-7847.97ZM5457.09-7927.03 5536.15-7927.03 5536.15-7847.97 5457.09-7847.97ZM5773.34-7927.03 6405.84-7927.03 6405.84-7847.97 5773.34-7847.97ZM6643.02-7927.03 6722.09-7927.03 6722.09-7847.97 6643.02-7847.97ZM6959.27-7927.03 7591.77-7927.03 7591.77-7847.97 6959.27-7847.97ZM-2310.96-7714.99-2606.68-7887.5-2310.96-8060.01C-2292.1-8071.01-2267.9-8064.64-2256.89-8045.78-2245.89-8026.92-2252.26-8002.71-2271.12-7991.71L-2508.31-7853.35-2508.31-7921.65-2271.12-7783.29C-2252.26-7772.29-2245.89-7748.08-2256.89-7729.22-2267.9-7710.36-2292.1-7703.99-2310.96-7714.99ZM7496.87-8060.01 7792.6-7887.5 7496.87-7714.99C7478.01-7703.99 7453.81-7710.36 7442.81-7729.22 7431.81-7748.08 7438.17-7772.29 7457.03-7783.29L7694.22-7921.65 7694.22-7853.35 7457.03-7991.71C7438.17-8002.71 7431.81-8026.92 7442.81-8045.78 7453.81-8064.64 7478.01-8071.01 7496.87-8060.01Z" fill="#7F7F7F" fill-rule="nonzero" fill-opacity="1"/><path d="M1677-8690C1677-9087.64 1999.58-9410 2397.5-9410 2795.42-9410 3118-9087.64 3118-8690 3118-8292.35 2795.42-7970 2397.5-7970 1999.58-7970 1677-8292.35 1677-8690Z" stroke="#000000" stroke-width="45.8333" stroke-linecap="butt" stroke-linejoin="miter" stroke-miterlimit="8" stroke-opacity="1" fill="none" fill-rule="evenodd"/><text fill="#0B488B" fill-opacity="1" font-family="Segoe UI Light,Segoe UI Light_MSFontService,sans-serif" font-style="normal" font-variant="normal" font-weight="300" font-stretch="normal" font-size="1095" text-anchor="start" direction="ltr" writing-mode="lr-tb" unicode-bidi="normal" text-decoration="none" transform="matrix(1 0 0 1 2172.76 -8328)">4</text><path d="M13690-3502C13690-3899.65 14012.6-4222 14410.5-4222 14808.4-4222 15131-3899.65 15131-3502 15131-3104.35 14808.4-2782 14410.5-2782 14012.6-2782 13690-3104.35 13690-3502Z" stroke="#000000" stroke-width="45.8333" stroke-linecap="butt" stroke-linejoin="miter" stroke-miterlimit="8" stroke-opacity="1" fill="none" fill-rule="evenodd"/><text fill="#0B488B" fill-opacity="1" font-family="Segoe UI Light,Segoe UI Light_MSFontService,sans-serif" font-style="normal" font-variant="normal" font-weight="300" font-stretch="normal" font-size="1095" text-anchor="start" direction="ltr" writing-mode="lr-tb" unicode-bidi="normal" text-decoration="none" transform="matrix(1 0 0 1 14186 -3139)">1</text></g></svg>