<svg width="2100" height="407" viewBox="0 0 2100 407" xmlns="http://www.w3.org/2000/svg" xmlns:xlink="http://www.w3.org/1999/xlink" overflow="hidden"><defs><clipPath id="clip0"><rect x="4019" y="-108" width="2100" height="407"/></clipPath></defs><g clip-path="url(#clip0)" transform="translate(-4019 108)"><path d="M4833.5 123C4833.5 120.515 4835.51 118.5 4838 118.5 4840.49 118.5 4842.5 120.515 4842.5 123 4842.5 125.485 4840.49 127.5 4838 127.5 4835.51 127.5 4833.5 125.485 4833.5 123Z" stroke="#037F9C" stroke-width="1.33333" stroke-miterlimit="8" fill="#06AED5" fill-rule="evenodd"/><path d="M4020.5 121.5 6116.72 121.5" stroke="#000000" stroke-width="4.66667" stroke-miterlimit="8" fill="none" fill-rule="evenodd"/><text font-family="Segoe UI,Segoe UI_MSFontService,sans-serif" font-weight="300" font-size="59" transform="translate(5779.71 207)">SP<tspan font-size="39" x="62.5" y="-18">2</tspan><tspan font-size="59" x="-768.024" y="0">PMA</tspan></text><path d="M5622.5-85.6204C5622.5-93.2859 5628.71-99.5001 5636.38-99.5001L6021.62-99.5001C6029.29-99.5001 6035.5-93.2859 6035.5-85.6204L6035.5 106.62C6035.5 114.286 6029.29 120.5 6021.62 120.5L5636.38 120.5C5628.71 120.5 5622.5 114.286 5622.5 106.62Z" stroke="#000000" stroke-width="4.66667" stroke-miterlimit="8" fill="#D9D9D9" fill-rule="evenodd"/><path d="M6034.33 130.5 5623.67 130.5C5623.03 130.5 5622.5 129.974 5622.5 129.326L5622.5 87.5 6035.5 87.5 6035.5 129.326C6035.5 129.974 6034.97 130.5 6034.33 130.5Z" stroke="#000000" stroke-width="4.66667" stroke-miterlimit="8" fill="#D9D9D9" fill-rule="evenodd"/><path d="M5645.5-71.9184C5645.5-73.3442 5646.66-74.5001 5648.08-74.5001L5670.92-74.5001C5672.34-74.5001 5673.5-73.3442 5673.5-71.9184L5673.5 61.9184C5673.5 63.3442 5672.34 64.5001 5670.92 64.5001L5648.08 64.5001C5646.66 64.5001 5645.5 63.3442 5645.5 61.9184Z" stroke="#000000" stroke-width="4.66667" stroke-miterlimit="8" fill="#7F7F7F" fill-rule="evenodd"/><path d="M5985.5-71.9184C5985.5-73.3442 5986.66-74.5001 5988.08-74.5001L6010.92-74.5001C6012.34-74.5001 6013.5-73.3442 6013.5-71.9184L6013.5 61.9184C6013.5 63.3442 6012.34 64.5001 6010.92 64.5001L5988.08 64.5001C5986.66 64.5001 5985.5 63.3442 5985.5 61.9184Z" stroke="#000000" stroke-width="4.66667" stroke-miterlimit="8" fill="#7F7F7F" fill-rule="evenodd"/><path d="M5707.5-31.741C5707.5-36.5785 5711.42-40.5001 5716.26-40.5001L5858.74-40.5001C5863.58-40.5001 5867.5-36.5785 5867.5-31.741L5867.5 45.741C5867.5 50.5785 5863.58 54.5 5858.74 54.5L5716.26 54.5C5711.42 54.5 5707.5 50.5785 5707.5 45.741Z" stroke="#000000" stroke-width="4.66667" stroke-miterlimit="8" fill="#FFFFFF" fill-rule="evenodd"/><rect x="5735.5" y="25.5001" width="20" height="27" stroke="#000000" stroke-width="4.66667" stroke-miterlimit="8" fill="#FC4445"/><rect x="5756.5" y="-0.500053" width="20" height="53.0001" stroke="#000000" stroke-width="4.66667" stroke-miterlimit="8" fill="#FC4445"/><rect x="5776.5" y="-17.5001" width="21" height="70.0001" stroke="#000000" stroke-width="4.66667" stroke-miterlimit="8" fill="#FC4445"/><rect x="5797.5" y="1.50005" width="20" height="51" stroke="#000000" stroke-width="4.66667" stroke-miterlimit="8" fill="#FC4445"/><rect x="5817.5" y="35.5001" width="21" height="17" stroke="#000000" stroke-width="4.66667" stroke-miterlimit="8" fill="#FC4445"/><path d="M4981.5-11.5001C4983.16-11.5001 4984.5-10.1569 4984.5-8.49996L4984.5 3.49996C4984.5 5.15687 4983.16 6.50005 4981.5 6.50005L4908.5 6.50005C4906.84 6.50005 4905.5 5.15687 4905.5 3.49996L4905.5-8.49996C4905.5-10.1569 4906.84-11.5001 4908.5-11.5001Z" stroke="#000000" stroke-width="4.66667" stroke-miterlimit="8" fill="#D9D9D9" fill-rule="evenodd"/><path d="M4963.5 75.5001C4965.16 75.5001 4966.5 76.8433 4966.5 78.5002L4966.5 90.5C4966.5 92.1569 4965.16 93.5001 4963.5 93.5001L4882.5 93.5001C4880.84 93.5001 4879.5 92.1569 4879.5 90.5L4879.5 78.5002C4879.5 76.8433 4880.84 75.5001 4882.5 75.5001Z" stroke="#000000" stroke-width="4.66667" stroke-miterlimit="8" fill="#D9D9D9" fill-rule="evenodd"/><path d="M4903.01-104.5 5238.44-104.5C5256.68-104.5 5272.33-92.789 5279.02-76.0988L5281.07-65.3671 5308.5 128.5 4832.5 128.5 4859.55-65.3671 4862.44-76.0988C4869.12-92.789 4884.77-104.5 4903.01-104.5Z" stroke="#000000" stroke-width="4.66667" stroke-miterlimit="8" fill="none" fill-rule="evenodd"/><path d="M4968.5-55.4812C4968.5-59.3576 4971.64-62.5001 4975.52-62.5001L5252.48-62.5001C5256.36-62.5001 5259.5-59.3576 5259.5-55.4812L5259.5 50.4812C5259.5 54.3576 5256.36 57.5001 5252.48 57.5001L4975.52 57.5001C4971.64 57.5001 4968.5 54.3576 4968.5 50.4812Z" stroke="#000000" stroke-width="4.66667" stroke-miterlimit="8" fill="#D9D9D9" fill-rule="evenodd"/><path d="M4861.5 67.5002C4861.5 63.0818 4865.08 59.5001 4869.5 59.5001L4901.5 59.5001C4905.92 59.5001 4909.5 63.0818 4909.5 67.5002L4909.5 106.5C4909.5 110.918 4905.92 114.5 4901.5 114.5L4869.5 114.5C4865.08 114.5 4861.5 110.918 4861.5 106.5Z" stroke="#000000" stroke-width="4.66667" stroke-miterlimit="8" fill="#D9D9D9" fill-rule="evenodd"/><path d="M5007.5-62.6973C5007.5-67.5589 5011.44-71.5001 5016.3-71.5001L5211.7-71.5001C5216.56-71.5001 5220.5-67.5589 5220.5-62.6973L5220.5 112.697C5220.5 117.559 5216.56 121.5 5211.7 121.5L5016.3 121.5C5011.44 121.5 5007.5 117.559 5007.5 112.697Z" stroke="#000000" stroke-width="4.66667" stroke-miterlimit="8" fill="#D9D9D9" fill-rule="evenodd"/><path d="M4919.5-53.8607C4919.5-56.4229 4921.58-58.5001 4924.14-58.5001L4928.86-58.5001C4931.42-58.5001 4933.5-56.4229 4933.5-53.8607L4933.5 99.8607C4933.5 102.423 4931.42 104.5 4928.86 104.5L4924.14 104.5C4921.58 104.5 4919.5 102.423 4919.5 99.8607Z" stroke="#000000" stroke-width="4.66667" stroke-miterlimit="8" fill="#7F7F7F" fill-rule="evenodd"/><path d="M4942.5-53.8607C4942.5-56.4229 4944.58-58.5001 4947.14-58.5001L4951.86-58.5001C4954.42-58.5001 4956.5-56.4229 4956.5-53.8607L4956.5 99.8607C4956.5 102.423 4954.42 104.5 4951.86 104.5L4947.14 104.5C4944.58 104.5 4942.5 102.423 4942.5 99.8607Z" stroke="#000000" stroke-width="4.66667" stroke-miterlimit="8" fill="#7F7F7F" fill-rule="evenodd"/><path d="M5103.86-6.50005 5302.14-6.50005C5304.99-6.50005 5307.3-4.18408 5307.3-1.32711L5307.3 115.746 5312.05 115.746C5313.4 115.746 5314.5 116.847 5314.5 118.205L5314.5 128.041C5314.5 129.399 5313.4 130.5 5312.05 130.5L4828.95 130.5C4827.6 130.5 4826.5 129.399 4826.5 128.041L4826.5 118.205C4826.5 116.847 4827.6 115.746 4828.95 115.746L5094 115.746 5098.71 111.017 5098.71-1.32711C5098.71-4.18408 5101.02-6.50005 5103.86-6.50005Z" stroke="#000000" stroke-width="4.66667" stroke-miterlimit="8" fill="#D9D9D9" fill-rule="evenodd"/><path d="M5133.5 28.5552C5133.5 25.7633 5135.76 23.5001 5138.56 23.5001L5269.44 23.5001C5272.24 23.5001 5274.5 25.7633 5274.5 28.5552L5274.5 98.4449C5274.5 101.237 5272.24 103.5 5269.44 103.5L5138.56 103.5C5135.76 103.5 5133.5 101.237 5133.5 98.4449Z" stroke="#000000" stroke-width="4.66667" stroke-miterlimit="8" fill="#FFFFFF" fill-rule="evenodd"/><path d="M5162.5 49.5001 5222.85 49.5002" stroke="#FC4445" stroke-width="4.66667" stroke-linecap="round" stroke-miterlimit="8" fill="none" fill-rule="evenodd"/><path d="M5162.5 76.5001 5209.11 76.5002" stroke="#FC4445" stroke-width="4.66667" stroke-linecap="round" stroke-miterlimit="8" fill="none" fill-rule="evenodd"/><path d="M4109.5 121.909C4109.5 117.817 4112.82 114.5 4116.91 114.5L4262.09 114.5C4266.18 114.5 4269.5 117.817 4269.5 121.909L4269.5 125.091C4269.5 129.183 4266.18 132.5 4262.09 132.5L4116.91 132.5C4112.82 132.5 4109.5 129.183 4109.5 125.091Z" stroke="#000000" stroke-width="4.66667" stroke-miterlimit="8" fill="#D9D9D9" fill-rule="evenodd"/><path d="M4124.5 75.6923C4124.5 71.7201 4127.72 68.5001 4131.69 68.5001L4246.31 68.5001C4250.28 68.5001 4253.5 71.7201 4253.5 75.6923L4253.5 175.308C4253.5 179.28 4250.28 182.5 4246.31 182.5L4131.69 182.5C4127.72 182.5 4124.5 179.28 4124.5 175.308Z" stroke="#000000" stroke-width="4.66667" stroke-miterlimit="8" fill="#D9D9D9" fill-rule="evenodd"/><path d="M4189.5 100.5 4189.5 144.79" stroke="#000000" stroke-width="4.66667" stroke-linecap="round" stroke-miterlimit="8" fill="#D9D9D9" fill-rule="evenodd"/><text font-family="Segoe UI,Segoe UI_MSFontService,sans-serif" font-weight="300" font-size="59" transform="translate(4073.38 38)">Impactor</text><path d="M4397.5 119.68C4397.5 116.267 4400.27 113.5 4403.68 113.5L4569.32 113.5C4572.73 113.5 4575.5 116.267 4575.5 119.68L4575.5 125.32C4575.5 128.733 4572.73 131.5 4569.32 131.5L4403.68 131.5C4400.27 131.5 4397.5 128.733 4397.5 125.32Z" stroke="#000000" stroke-width="4.66667" stroke-miterlimit="8" fill="#D9D9D9" fill-rule="evenodd"/><path d="M4409.5-4.84736C4409.5-10.1784 4413.82-14.5001 4419.15-14.5001L4552.85-14.5001C4558.18-14.5001 4562.5-10.1784 4562.5-4.84736L4562.5 169.847C4562.5 175.178 4558.18 179.5 4552.85 179.5L4419.15 179.5C4413.82 179.5 4409.5 175.178 4409.5 169.847Z" stroke="#000000" stroke-width="4.66667" stroke-miterlimit="8" fill="#D9D9D9" fill-rule="evenodd"/><path d="M4489.12 19.803 4501.67 52.8034 4492.56 53.8586 4511.35 84.2902 4502.06 86.0412 4522.5 134.042 4477.95 89.5156 4489.13 87.9882 4461.6 59.7384 4474.95 56.8654 4445.85 27.1707Z" stroke="#000000" stroke-width="4.66667" stroke-miterlimit="8" fill="#FFFFFF" fill-rule="evenodd"/><text font-family="Segoe UI,Segoe UI_MSFontService,sans-serif" font-weight="300" font-size="59" transform="translate(4394.64 245)">Charger</text></g></svg>
