<svg width="1238" height="298" xmlns="http://www.w3.org/2000/svg" xmlns:xlink="http://www.w3.org/1999/xlink" xml:space="preserve" overflow="hidden"><defs><clipPath id="clip0"><rect x="2731" y="4115" width="1238" height="298"/></clipPath></defs><g clip-path="url(#clip0)" transform="translate(-2731 -4115)"><path d="M3132.83 4236.5C3134.86 4236.5 3136.5 4238.14 3136.5 4240.17L3136.5 4254.83C3136.5 4256.86 3134.86 4258.5 3132.83 4258.5L2943.17 4258.5C2941.14 4258.5 2939.5 4256.86 2939.5 4254.83L2939.5 4240.17C2939.5 4238.14 2941.14 4236.5 2943.17 4236.5Z" stroke="#0B1F4D" stroke-width="12.6042" stroke-linecap="butt" stroke-linejoin="miter" stroke-miterlimit="8" stroke-opacity="1" fill="#D9D9D9" fill-rule="evenodd" fill-opacity="1"/><path d="M3088.83 4340.5C3090.86 4340.5 3092.5 4342.14 3092.5 4344.17L3092.5 4358.83C3092.5 4360.86 3090.86 4362.5 3088.83 4362.5L2877.17 4362.5C2875.14 4362.5 2873.5 4360.86 2873.5 4358.83L2873.5 4344.17C2873.5 4342.14 2875.14 4340.5 2877.17 4340.5Z" stroke="#0B1F4D" stroke-width="12.6042" stroke-linecap="butt" stroke-linejoin="miter" stroke-miterlimit="8" stroke-opacity="1" fill="#D9D9D9" fill-rule="evenodd" fill-opacity="1"/><path d="M2933.49 4124.5 3770.64 4124.5C3816.17 4124.5 3855.23 4138.62 3871.91 4158.75L3877.03 4171.69 3945.5 4405.5 2757.5 4405.5 2825 4171.69 2832.21 4158.75C2848.9 4138.62 2887.96 4124.5 2933.49 4124.5Z" stroke="#0B1F4D" stroke-width="12.6042" stroke-linecap="butt" stroke-linejoin="miter" stroke-miterlimit="8" stroke-opacity="1" fill="none" fill-rule="evenodd"/><path d="M3096.5 4182.92C3096.5 4178.27 3100.27 4174.5 3104.92 4174.5L3814.08 4174.5C3818.73 4174.5 3822.5 4178.27 3822.5 4182.92L3822.5 4310.08C3822.5 4314.73 3818.73 4318.5 3814.08 4318.5L3104.92 4318.5C3100.27 4318.5 3096.5 4314.73 3096.5 4310.08Z" stroke="#0B1F4D" stroke-width="12.6042" stroke-linecap="butt" stroke-linejoin="miter" stroke-miterlimit="8" stroke-opacity="1" fill="#D9D9D9" fill-rule="evenodd" fill-opacity="1"/><path d="M2828.5 4332.5C2828.5 4326.42 2833.42 4321.5 2839.5 4321.5L2938.5 4321.5C2944.57 4321.5 2949.5 4326.42 2949.5 4332.5L2949.5 4376.5C2949.5 4382.58 2944.57 4387.5 2938.5 4387.5L2839.5 4387.5C2833.42 4387.5 2828.5 4382.58 2828.5 4376.5Z" stroke="#0B1F4D" stroke-width="12.6042" stroke-linecap="butt" stroke-linejoin="miter" stroke-miterlimit="8" stroke-opacity="1" fill="#D9D9D9" fill-rule="evenodd" fill-opacity="1"/><path d="M3193.5 4174.13C3193.5 4168.26 3198.26 4163.5 3204.13 4163.5L3715.87 4163.5C3721.74 4163.5 3726.5 4168.26 3726.5 4174.13L3726.5 4385.87C3726.5 4391.74 3721.74 4396.5 3715.87 4396.5L3204.13 4396.5C3198.26 4396.5 3193.5 4391.74 3193.5 4385.87Z" stroke="#0B1F4D" stroke-width="12.6042" stroke-linecap="butt" stroke-linejoin="miter" stroke-miterlimit="8" stroke-opacity="1" fill="#D9D9D9" fill-rule="evenodd" fill-opacity="1"/><path d="M2973.5 4191.1C2973.5 4184.69 2978.69 4179.5 2985.1 4179.5L2996.9 4179.5C3003.31 4179.5 3008.5 4184.69 3008.5 4191.1L3008.5 4363.9C3008.5 4370.31 3003.31 4375.5 2996.9 4375.5L2985.1 4375.5C2978.69 4375.5 2973.5 4370.31 2973.5 4363.9Z" stroke="#0B1F4D" stroke-width="12.6042" stroke-linecap="butt" stroke-linejoin="miter" stroke-miterlimit="8" stroke-opacity="1" fill="#7F7F7F" fill-rule="evenodd" fill-opacity="1"/><path d="M3031.5 4191.1C3031.5 4184.69 3036.69 4179.5 3043.1 4179.5L3054.9 4179.5C3061.31 4179.5 3066.5 4184.69 3066.5 4191.1L3066.5 4363.9C3066.5 4370.31 3061.31 4375.5 3054.9 4375.5L3043.1 4375.5C3036.69 4375.5 3031.5 4370.31 3031.5 4363.9Z" stroke="#0B1F4D" stroke-width="12.6042" stroke-linecap="butt" stroke-linejoin="miter" stroke-miterlimit="8" stroke-opacity="1" fill="#7F7F7F" fill-rule="evenodd" fill-opacity="1"/><path d="M3434.77 4242.5 3929.66 4242.5C3936.76 4242.5 3942.52 4245.27 3942.52 4248.69L3942.52 4388.84 3954.39 4388.84C3957.76 4388.84 3960.5 4390.16 3960.5 4391.78L3960.5 4403.56C3960.5 4405.18 3957.76 4406.5 3954.39 4406.5L2748.61 4406.5C2745.24 4406.5 2742.5 4405.18 2742.5 4403.56L2742.5 4391.78C2742.5 4390.16 2745.24 4388.84 2748.61 4388.84L3410.15 4388.84 3421.91 4383.18 3421.91 4248.69C3421.91 4245.27 3427.67 4242.5 3434.77 4242.5Z" stroke="#0B1F4D" stroke-width="12.6042" stroke-linecap="butt" stroke-linejoin="miter" stroke-miterlimit="8" stroke-opacity="1" fill="#D9D9D9" fill-rule="evenodd" fill-opacity="1"/><path d="M3507.5 4284.57C3507.5 4281.22 3510.22 4278.5 3513.57 4278.5L3854.43 4278.5C3857.78 4278.5 3860.5 4281.22 3860.5 4284.57L3860.5 4368.43C3860.5 4371.78 3857.78 4374.5 3854.43 4374.5L3513.57 4374.5C3510.22 4374.5 3507.5 4371.78 3507.5 4368.43Z" stroke="#0B1F4D" stroke-width="12.6042" stroke-linecap="butt" stroke-linejoin="miter" stroke-miterlimit="8" stroke-opacity="1" fill="#FFFFFF" fill-rule="evenodd" fill-opacity="1"/><path d="M3581.5 4309.5 3732.13 4309.5" stroke="#0B1F4D" stroke-width="12.6042" stroke-linecap="round" stroke-linejoin="miter" stroke-miterlimit="8" stroke-opacity="1" fill="none" fill-rule="evenodd"/><path d="M3581.5 4341.5 3697.83 4341.5" stroke="#0B1F4D" stroke-width="12.6042" stroke-linecap="round" stroke-linejoin="miter" stroke-miterlimit="8" stroke-opacity="1" fill="none" fill-rule="evenodd"/></g></svg>