<svg width="4373" height="1916" xmlns="http://www.w3.org/2000/svg" xmlns:xlink="http://www.w3.org/1999/xlink" xml:space="preserve" overflow="hidden"><defs><clipPath id="clip0"><rect x="2717" y="3391" width="4373" height="1916"/></clipPath></defs><g clip-path="url(#clip0)" transform="translate(-2717 -3391)"><text fill="#7F7F7F" fill-opacity="1" font-family="Segoe UI,Segoe UI_MSFontService,sans-serif" font-style="normal" font-variant="normal" font-weight="400" font-stretch="normal" font-size="128" text-anchor="start" direction="ltr" writing-mode="lr-tb" unicode-bidi="normal" text-decoration="none" transform="matrix(1 0 0 1 3327.62 5201)">Normalized particle </text><text fill="#7F7F7F" fill-opacity="1" font-family="Segoe UI,Segoe UI_MSFontService,sans-serif" font-style="normal" font-variant="normal" font-weight="400" font-stretch="normal" font-size="128" text-anchor="start" direction="ltr" writing-mode="lr-tb" unicode-bidi="normal" text-decoration="none" transform="matrix(1 0 0 1 4470.61 5201)">mass</text><text fill="#7F7F7F" fill-opacity="1" font-family="Segoe UI,Segoe UI_MSFontService,sans-serif" font-style="normal" font-variant="normal" font-weight="400" font-stretch="normal" font-size="128" text-anchor="start" direction="ltr" writing-mode="lr-tb" unicode-bidi="normal" text-decoration="none" transform="matrix(1 0 0 1 3627.06 5022)">1</text><text fill="#7F7F7F" fill-opacity="1" font-family="Segoe UI,Segoe UI_MSFontService,sans-serif" font-style="normal" font-variant="normal" font-weight="400" font-stretch="normal" font-size="128" text-anchor="start" direction="ltr" writing-mode="lr-tb" unicode-bidi="normal" text-decoration="none" transform="matrix(1 0 0 1 3696.38 5022)">-</text><text fill="#7F7F7F" fill-opacity="1" font-family="Cambria Math,Cambria Math_MSFontService,sans-serif" font-style="normal" font-variant="normal" font-weight="400" font-stretch="normal" font-size="128" text-anchor="start" direction="ltr" writing-mode="lr-tb" unicode-bidi="normal" text-decoration="none" transform="translate(3747.95 5022)">ğ›½</text><text fill="#7F7F7F" fill-opacity="1" font-family="Segoe UI,Segoe UI_MSFontService,sans-serif" font-style="normal" font-variant="normal" font-weight="400" font-stretch="normal" font-size="128" text-anchor="start" direction="ltr" writing-mode="lr-tb" unicode-bidi="normal" text-decoration="none" transform="matrix(1 0 0 1 4084.76 5026)">1</text><text fill="#7F7F7F" fill-opacity="1" font-family="Segoe UI,Segoe UI_MSFontService,sans-serif" font-style="normal" font-variant="normal" font-weight="400" font-stretch="normal" font-size="128" text-anchor="start" direction="ltr" writing-mode="lr-tb" unicode-bidi="normal" text-decoration="none" transform="matrix(1 0 0 1 4396.12 5022)">1+</text><text fill="#7F7F7F" fill-opacity="1" font-family="Cambria Math,Cambria Math_MSFontService,sans-serif" font-style="normal" font-variant="normal" font-weight="400" font-stretch="normal" font-size="128" text-anchor="start" direction="ltr" writing-mode="lr-tb" unicode-bidi="normal" text-decoration="none" transform="translate(4553.1 5022)">ğ›½</text><path d="M4113 4368 4755.61 4847.91" stroke="#0A467F" stroke-width="24.0625" stroke-linecap="butt" stroke-linejoin="miter" stroke-miterlimit="8" stroke-dasharray="96.25 72.1875" stroke-opacity="1" fill="none" fill-rule="evenodd"/><path d="M0 0 629.452 475.061" stroke="#0A467F" stroke-width="24.0625" stroke-linecap="butt" stroke-linejoin="miter" stroke-miterlimit="8" stroke-dasharray="96.25 72.1875" stroke-opacity="1" fill="none" fill-rule="evenodd" transform="matrix(-1 0 0 1 4120.45 4368)"/><path d="M0 0 182.512 0.000360892" stroke="#0A467F" stroke-width="24.0625" stroke-linecap="butt" stroke-linejoin="miter" stroke-miterlimit="8" stroke-dasharray="96.25 72.1875" stroke-opacity="1" fill="none" fill-rule="evenodd" transform="matrix(-1 0 0 1 3491.51 4843)"/><path d="M4927.67 4850.22 4756 4848" stroke="#0A467F" stroke-width="24.0625" stroke-linecap="butt" stroke-linejoin="miter" stroke-miterlimit="8" stroke-dasharray="96.25 72.1875" stroke-opacity="1" fill="none" fill-rule="evenodd"/><path d="M3311.5 4853.5 3311.5 4853.5 3315.84 4853.5 3319.56 4853.5 3323.9 4853.5 3327.62 4853.5 3331.97 4853.5 3335.69 4853.5 3340.03 4853.5 3343.75 4853.5 3348.09 4853.5 3351.81 4853.5 3356.15 4853.5 3359.87 4853.5 3364.21 4853.5 3367.93 4853.5 3372.28 4853.5 3376 4853.5 3380.34 4853.5 3384.06 4853.5 3388.4 4853.5 3392.74 4853.5 3396.46 4853.5 3400.18 4853.5 3404.52 4853.5 3408.24 4853.5 3412.59 4853.5 3416.93 4853.5 3420.65 4853.5 3424.99 4853.5 3428.71 4853.5 3433.05 4853.5 3436.77 4853.5 3441.11 4853.5 3444.83 4853.5 3449.18 4853.5 3452.9 4853.5 3457.24 4853.5 3460.96 4853.5 3465.3 4853.5 3469.64 4853.5 3473.36 4853.5 3477.08 4853.5 3481.42 4853.5 3485.14 4853.5 3489.49 4853.5 3493.83 4853.5 3497.55 4853.5 3501.27 4853.5 3505.61 4853.5 3509.95 4853.5 3513.67 4853.5 3518.01 4853.5 3521.73 4853.5 3526.08 4853.5 3529.8 4853.5 3534.14 4853.5 3537.86 4853.5 3542.2 4853.5 3545.92 4853.5 3550.26 4853.5 3553.98 4853.5 3558.32 4853.5 3562.04 4853.5 3566.39 4853.5 3570.73 4853.5 3574.45 4853.5 3578.17 4853.5 3582.51 4853.5 3586.85 4853.5 3590.57 4853.5 3594.91 4853.5 3598.63 4853.5 3602.36 4853.5 3606.7 4853.5 3611.04 4853.5 3614.76 4853.5 3619.1 4853.5 3622.82 4853.5 3627.16 4853.5 3630.88 4853.5 3635.22 4853.5 3638.94 4853.5 3643.29 4853.5 3647.01 4853.5 3651.35 4853.5 3655.07 4853.5 3659.41 4853.5 3663.13 4853.5 3667.47 4853.5 3671.81 4853.5 3675.53 4853.5 3679.26 4853.5 3683.6 4853.5 3687.94 4853.5 3691.66 4853.5 3696 4853.5 3699.72 4853.5 3703.44 4853.5 3707.78 4853.5 3712.12 4853.5 3715.84 4853.5 3720.19 4841.09 3723.91 4828.06 3728.25 4815.65 3731.97 4802.62 3736.31 4789.59 3740.03 4777.18 3744.37 4764.15 3748.09 4751.12 3752.43 4738.72 3756.16 4725.69 3760.5 4713.28 3764.84 4700.25 3768.56 4687.22 3772.9 4674.81 3776.62 4661.78 3780.34 4648.75 3784.68 4636.34 3789.02 4623.31 3792.74 4610.9 3797.09 4597.87 3800.81 4584.84 3805.15 4572.43 3808.87 4559.4 3813.21 4546.37 3816.93 4533.97 3821.27 4520.94 3824.99 4508.53 3829.33 4495.5 3833.06 4482.47 3837.4 4470.06 3841.12 4457.03 3845.46 4444 3849.18 4431.59 3853.52 4418.56 3857.24 4406.15 3861.58 4393.12 3865.92 4380.09 3869.64 4367.68 3873.99 4354.65 3877.71 4341.62 3881.43 4329.21 3885.77 4316.19 3890.11 4303.78 3893.83 4290.75 3898.17 4277.72 3901.89 4265.31 3906.23 4252.28 3909.96 4239.25 3914.3 4226.84 3918.02 4213.81 3922.36 4201.4 3926.08 4188.37 3930.42 4175.34 3934.14 4162.93 3938.48 4149.9 3942.82 4136.87 3946.54 4124.46 3950.27 4111.44 3954.61 4099.03 3958.33 4086 3962.67 4072.97 3967.01 4060.56 3970.73 4047.53 3975.07 4034.5 3978.79 4022.09 3983.13 4009.06 3986.85 3996.65 3991.2 3983.62 3994.92 3970.59 3999.26 3958.18 4002.98 3945.15 4007.32 3932.12 4011.04 3919.71 4015.38 3906.68 4019.1 3893.66 4023.44 3881.25 4027.17 3868.22 4031.51 3855.81 4035.23 3842.78 4039.57 3829.75 4043.91 3817.34 4047.63 3804.31 4051.35 3791.28 4055.69 3778.87 4060.03 3765.84 4063.76 3753.43 4068.1 3740.4 4071.82 3727.37 4076.16 3714.96 4079.88 3701.93 4084.22 3688.91 4087.94 3676.5 4092.28 3663.47 4096 3651.06 4100.34 3638.03 4104.07 3625 4108.41 3611.97 4112.13 3599.56 4116.47 3586.53 4120.19 3573.5 4124.53 3586.53 4128.25 3599.56 4132.59 3611.97 4136.31 3625 4140.65 3638.03 4145 3651.06 4148.72 3663.47 4152.44 3676.5 4156.78 3688.91 4161.12 3701.93 4164.84 3714.96 4169.18 3727.37 4172.9 3740.4 4177.24 3753.43 4180.97 3765.84 4185.31 3778.87 4189.03 3791.28 4193.37 3804.31 4197.09 3817.34 4201.43 3829.75 4205.15 3842.78 4209.49 3855.81 4213.21 3868.22 4217.55 3881.25 4221.28 3893.66 4225.62 3906.68 4229.34 3919.71 4233.68 3932.12 4238.02 3945.15 4241.74 3958.18 4246.08 3970.59 4249.8 3983.62 4253.52 3996.65 4257.87 4009.06 4262.21 4022.09 4265.93 4034.5 4270.27 4047.53 4273.99 4060.56 4278.33 4072.97 4282.05 4086 4286.39 4099.03 4290.11 4111.44 4294.46 4124.46 4298.18 4136.87 4302.52 4149.9 4306.24 4162.93 4310.58 4175.34 4314.92 4188.37 4318.64 4201.4 4322.36 4213.81 4326.7 4226.84 4330.42 4239.25 4334.77 4252.28 4339.11 4265.31 4342.83 4277.72 4347.17 4290.75 4350.89 4303.78 4354.61 4316.19 4358.95 4329.21 4363.29 4341.62 4367.01 4354.65 4371.35 4367.68 4375.08 4380.09 4379.42 4393.12 4383.14 4406.15 4387.48 4418.56 4391.2 4431.59 4395.54 4444 4399.26 4457.03 4403.6 4470.06 4407.32 4482.47 4411.67 4495.5 4416.01 4508.53 4419.73 4520.94 4423.45 4533.97 4427.79 4546.37 4431.51 4559.4 4435.85 4572.43 4440.19 4584.84 4443.91 4597.87 4448.25 4610.9 4451.98 4623.31 4456.32 4636.34 4460.04 4648.75 4464.38 4661.78 4468.1 4674.81 4472.44 4687.22 4476.16 4700.25 4480.5 4713.28 4484.22 4725.69 4488.57 4738.72 4492.91 4751.12 4496.63 4764.15 4500.35 4777.18 4504.69 4789.59 4508.41 4802.62 4512.75 4815.65 4517.09 4828.06 4520.81 4841.09 4524.53 4853.5 4528.88 4853.5 4533.22 4853.5 4536.94 4853.5 4541.28 4853.5 4545 4853.5 4549.34 4853.5 4553.06 4853.5 4557.4 4853.5 4561.12 4853.5 4565.47 4853.5 4569.19 4853.5 4573.53 4853.5 4577.25 4853.5 4581.59 4853.5 4585.31 4853.5 4589.65 4853.5 4593.99 4853.5 4597.71 4853.5 4601.43 4853.5 4605.78 4853.5 4609.5 4853.5 4613.84 4853.5 4618.18 4853.5 4621.9 4853.5 4625.62 4853.5 4629.96 4853.5 4634.3 4853.5 4638.02 4853.5 4642.37 4853.5 4646.09 4853.5 4650.43 4853.5 4654.15 4853.5 4658.49 4853.5 4662.21 4853.5 4666.55 4853.5 4670.27 4853.5 4674.61 4853.5 4678.33 4853.5 4682.68 4853.5 4686.4 4853.5 4690.74 4853.5 4695.08 4853.5 4698.8 4853.5 4702.52 4853.5 4706.86 4853.5 4711.2 4853.5 4714.92 4853.5 4719.27 4853.5 4722.99 4853.5 4726.71 4853.5 4731.05 4853.5 4735.39 4853.5 4739.11 4853.5 4743.45 4853.5 4747.17 4853.5 4751.51 4853.5 4755.23 4853.5 4759.58 4853.5 4763.3 4853.5 4767.64 4853.5 4771.36 4853.5 4775.7 4853.5 4779.42 4853.5 4783.76 4853.5 4788.1 4853.5 4791.82 4853.5 4796.17 4853.5 4799.89 4853.5 4803.61 4853.5 4807.95 4853.5 4812.29 4853.5 4816.01 4853.5 4820.35 4853.5 4824.07 4853.5 4828.41 4853.5 4832.13 4853.5 4836.48 4853.5 4840.2 4853.5 4844.54 4853.5 4848.26 4853.5 4852.6 4853.5 4856.32 4853.5 4860.66 4853.5 4864.38 4853.5 4868.72 4853.5 4872.44 4853.5 4876.79 4853.5 4880.51 4853.5 4884.85 4853.5 4889.19 4853.5 4892.91 4853.5 4897.25 4853.5 4900.97 4853.5 4904.69 4853.5 4909.03 4853.5 4913.38 4853.5 4917.1 4853.5 4921.44 4853.5 4925.16 4853.5 4929.5 4853.5" stroke="#1DC2AB" stroke-width="22.9167" stroke-linecap="butt" stroke-linejoin="round" stroke-miterlimit="10" stroke-opacity="1" fill="none" fill-rule="evenodd"/><path d="M0 0 625.053 0.000360892" stroke="#0B467F" stroke-width="13.75" stroke-linecap="butt" stroke-linejoin="miter" stroke-miterlimit="8" stroke-dasharray="13.75 13.75" stroke-opacity="1" fill="none" fill-rule="evenodd" transform="matrix(-1 0 0 1 4429.05 4597)"/><path d="M0 0 410.601 0.000360892" stroke="#1FC2AB" stroke-width="13.75" stroke-linecap="butt" stroke-linejoin="miter" stroke-miterlimit="8" stroke-dasharray="13.75 13.75" stroke-opacity="1" fill="none" fill-rule="evenodd" transform="matrix(-1 0 0 1 4320.6 4210)"/><text fill="#7F7F7F" fill-opacity="1" font-family="Segoe UI,Segoe UI_MSFontService,sans-serif" font-style="normal" font-variant="normal" font-weight="400" font-stretch="normal" font-size="128" text-anchor="start" direction="ltr" writing-mode="lr-tb" unicode-bidi="normal" text-decoration="none" transform="matrix(1 0 0 1 3212.99 5021)">(1</text><text fill="#7F7F7F" fill-opacity="1" font-family="Segoe UI,Segoe UI_MSFontService,sans-serif" font-style="normal" font-variant="normal" font-weight="400" font-stretch="normal" font-size="128" text-anchor="start" direction="ltr" writing-mode="lr-tb" unicode-bidi="normal" text-decoration="none" transform="matrix(1 0 0 1 3321.28 5021)">-</text><text fill="#7F7F7F" fill-opacity="1" font-family="Cambria Math,Cambria Math_MSFontService,sans-serif" font-style="normal" font-variant="normal" font-weight="400" font-stretch="normal" font-size="128" text-anchor="start" direction="ltr" writing-mode="lr-tb" unicode-bidi="normal" text-decoration="none" transform="translate(3372.84 5021)">ğ›½</text><text fill="#7F7F7F" fill-opacity="1" font-family="Segoe UI,Segoe UI_MSFontService,sans-serif" font-style="normal" font-variant="normal" font-weight="400" font-stretch="normal" font-size="128" text-anchor="start" direction="ltr" writing-mode="lr-tb" unicode-bidi="normal" text-decoration="none" transform="matrix(1 0 0 1 3450.76 5021)">/</text><text fill="#7F7F7F" fill-opacity="1" font-family="Segoe UI,Segoe UI_MSFontService,sans-serif" font-style="italic" font-variant="normal" font-weight="400" font-stretch="normal" font-size="128" text-anchor="start" direction="ltr" writing-mode="lr-tb" unicode-bidi="normal" text-decoration="none" transform="matrix(1 0 0 1 3500.6 5021)">Î¼</text><text fill="#7F7F7F" fill-opacity="1" font-family="Segoe UI,Segoe UI_MSFontService,sans-serif" font-style="normal" font-variant="normal" font-weight="400" font-stretch="normal" font-size="128" text-anchor="start" direction="ltr" writing-mode="lr-tb" unicode-bidi="normal" text-decoration="none" transform="matrix(1 0 0 1 3574.51 5021)">)</text><text fill="#7F7F7F" fill-opacity="1" font-family="Segoe UI,Segoe UI_MSFontService,sans-serif" font-style="normal" font-variant="normal" font-weight="400" font-stretch="normal" font-size="128" text-anchor="start" direction="ltr" writing-mode="lr-tb" unicode-bidi="normal" text-decoration="none" transform="matrix(1 0 0 1 4703.05 5020)">(1+</text><text fill="#7F7F7F" fill-opacity="1" font-family="Cambria Math,Cambria Math_MSFontService,sans-serif" font-style="normal" font-variant="normal" font-weight="400" font-stretch="normal" font-size="128" text-anchor="start" direction="ltr" writing-mode="lr-tb" unicode-bidi="normal" text-decoration="none" transform="translate(4898.99 5020)">ğ›½</text><text fill="#7F7F7F" fill-opacity="1" font-family="Segoe UI,Segoe UI_MSFontService,sans-serif" font-style="normal" font-variant="normal" font-weight="400" font-stretch="normal" font-size="128" text-anchor="start" direction="ltr" writing-mode="lr-tb" unicode-bidi="normal" text-decoration="none" transform="matrix(1 0 0 1 4976.91 5020)">/</text><text fill="#7F7F7F" fill-opacity="1" font-family="Segoe UI,Segoe UI_MSFontService,sans-serif" font-style="italic" font-variant="normal" font-weight="400" font-stretch="normal" font-size="128" text-anchor="start" direction="ltr" writing-mode="lr-tb" unicode-bidi="normal" text-decoration="none" transform="matrix(1 0 0 1 5026.75 5020)">Î¼</text><text fill="#7F7F7F" fill-opacity="1" font-family="Segoe UI,Segoe UI_MSFontService,sans-serif" font-style="normal" font-variant="normal" font-weight="400" font-stretch="normal" font-size="128" text-anchor="start" direction="ltr" writing-mode="lr-tb" unicode-bidi="normal" text-decoration="none" transform="matrix(1 0 0 1 5100.66 5020)">)</text><text fill="#7F7F7F" fill-opacity="1" font-family="Segoe UI,Segoe UI_MSFontService,sans-serif" font-style="normal" font-variant="normal" font-weight="400" font-stretch="normal" font-size="128" text-anchor="start" direction="ltr" writing-mode="lr-tb" unicode-bidi="normal" text-decoration="none" transform="matrix(-1.83697e-16 -1 1 -1.83697e-16 2882.93 4925)">CPMA transfer function</text><text fill="#7F7F7F" fill-opacity="1" font-family="Segoe UI,Segoe UI_MSFontService,sans-serif" font-style="normal" font-variant="normal" font-weight="400" font-stretch="normal" font-size="128" text-anchor="start" direction="ltr" writing-mode="lr-tb" unicode-bidi="normal" text-decoration="none" transform="matrix(-1.83697e-16 -1 1 -1.83697e-16 3036.93 4890)">(</text><text fill="#7F7F7F" fill-opacity="1" font-family="Segoe UI,Segoe UI_MSFontService,sans-serif" font-style="italic" font-variant="normal" font-weight="400" font-stretch="normal" font-size="128" text-anchor="start" direction="ltr" writing-mode="lr-tb" unicode-bidi="normal" text-decoration="none" transform="matrix(-1.83697e-16 -1 1 -1.83697e-16 3036.93 4851)">Î©</text><text fill="#7F7F7F" fill-opacity="1" font-family="Segoe UI,Segoe UI_MSFontService,sans-serif" font-style="normal" font-variant="normal" font-weight="400" font-stretch="normal" font-size="86" text-anchor="start" direction="ltr" writing-mode="lr-tb" unicode-bidi="normal" text-decoration="none" transform="matrix(-1.83697e-16 -1 1 -1.83697e-16 3067.93 4752)">CPMA</text><text fill="#7F7F7F" fill-opacity="1" font-family="Segoe UI,Segoe UI_MSFontService,sans-serif" font-style="normal" font-variant="normal" font-weight="400" font-stretch="normal" font-size="128" text-anchor="start" direction="ltr" writing-mode="lr-tb" unicode-bidi="normal" text-decoration="none" transform="matrix(-1.83697e-16 -1 1 -1.83697e-16 3036.93 4519)">)</text><path d="M0 0 0.000360892 37.0001" stroke="#262626" stroke-width="10.3125" stroke-linecap="butt" stroke-linejoin="round" stroke-miterlimit="10" stroke-opacity="1" fill="none" fill-rule="evenodd" transform="matrix(1 0 0 -1 3511 4854)"/><path d="M0 0 0.000360892 37.0001" stroke="#262626" stroke-width="10.3125" stroke-linecap="butt" stroke-linejoin="round" stroke-miterlimit="10" stroke-opacity="1" fill="none" fill-rule="evenodd" transform="matrix(1 0 0 -1 3713 4854)"/><path d="M0 0 0.000360892 37.0001" stroke="#262626" stroke-width="10.3125" stroke-linecap="butt" stroke-linejoin="round" stroke-miterlimit="10" stroke-opacity="1" fill="none" fill-rule="evenodd" transform="matrix(1 0 0 -1 3915 4854)"/><path d="M0 0 0.000360892 37.0001" stroke="#262626" stroke-width="10.3125" stroke-linecap="butt" stroke-linejoin="round" stroke-miterlimit="10" stroke-opacity="1" fill="none" fill-rule="evenodd" transform="matrix(1 0 0 -1 4118 4854)"/><path d="M0 0 0.000360892 37.0001" stroke="#262626" stroke-width="10.3125" stroke-linecap="butt" stroke-linejoin="round" stroke-miterlimit="10" stroke-opacity="1" fill="none" fill-rule="evenodd" transform="matrix(1 0 0 -1 4320 4854)"/><path d="M0 0 0.000360892 37.0001" stroke="#262626" stroke-width="10.3125" stroke-linecap="butt" stroke-linejoin="round" stroke-miterlimit="10" stroke-opacity="1" fill="none" fill-rule="evenodd" transform="matrix(1 0 0 -1 4522 4854)"/><path d="M0 0 0.000360892 37.0001" stroke="#262626" stroke-width="10.3125" stroke-linecap="butt" stroke-linejoin="round" stroke-miterlimit="10" stroke-opacity="1" fill="none" fill-rule="evenodd" transform="matrix(1 0 0 -1 4724 4854)"/><path d="M3309 4851 4925 4851" stroke="#262626" stroke-width="10.3125" stroke-linecap="butt" stroke-linejoin="round" stroke-miterlimit="10" stroke-opacity="1" fill="none" fill-rule="evenodd"/><path d="M4927 3571 3306 3571" stroke="#262626" stroke-width="10.3125" stroke-linecap="butt" stroke-linejoin="round" stroke-miterlimit="10" stroke-opacity="1" fill="none" fill-rule="evenodd"/><path d="M0 0 0.000360892 37.0001" stroke="#262626" stroke-width="10.3125" stroke-linecap="butt" stroke-linejoin="round" stroke-miterlimit="10" stroke-opacity="1" fill="none" fill-rule="evenodd" transform="matrix(1 0 0 -1 3510 3608)"/><path d="M0 0 0.000360892 37.0001" stroke="#262626" stroke-width="10.3125" stroke-linecap="butt" stroke-linejoin="round" stroke-miterlimit="10" stroke-opacity="1" fill="none" fill-rule="evenodd" transform="matrix(1 0 0 -1 3712 3608)"/><path d="M0 0 0.000360892 37.0001" stroke="#262626" stroke-width="10.3125" stroke-linecap="butt" stroke-linejoin="round" stroke-miterlimit="10" stroke-opacity="1" fill="none" fill-rule="evenodd" transform="matrix(1 0 0 -1 3914 3608)"/><path d="M0 0 0.000360892 37.0001" stroke="#262626" stroke-width="10.3125" stroke-linecap="butt" stroke-linejoin="round" stroke-miterlimit="10" stroke-opacity="1" fill="none" fill-rule="evenodd" transform="matrix(1 0 0 -1 4116 3608)"/><path d="M0 0 0.000360892 37.0001" stroke="#262626" stroke-width="10.3125" stroke-linecap="butt" stroke-linejoin="round" stroke-miterlimit="10" stroke-opacity="1" fill="none" fill-rule="evenodd" transform="matrix(1 0 0 -1 4319 3608)"/><path d="M0 0 0.000360892 37.0001" stroke="#262626" stroke-width="10.3125" stroke-linecap="butt" stroke-linejoin="round" stroke-miterlimit="10" stroke-opacity="1" fill="none" fill-rule="evenodd" transform="matrix(1 0 0 -1 4521 3608)"/><path d="M0 0 0.000360892 37.0001" stroke="#262626" stroke-width="10.3125" stroke-linecap="butt" stroke-linejoin="round" stroke-miterlimit="10" stroke-opacity="1" fill="none" fill-rule="evenodd" transform="matrix(1 0 0 -1 4723 3608)"/><path d="M0 0 0.000360892 15.9998" stroke="#262626" stroke-width="10.3125" stroke-linecap="butt" stroke-linejoin="round" stroke-miterlimit="10" stroke-opacity="1" fill="none" fill-rule="evenodd" transform="matrix(1 0 0 -1 3309 4848)"/><path d="M0 0 0.000360892 1276" stroke="#262626" stroke-width="10.3125" stroke-linecap="butt" stroke-linejoin="round" stroke-miterlimit="10" stroke-opacity="1" fill="none" fill-rule="evenodd" transform="matrix(1 0 0 -1 3309 4851)"/><path d="M3309 4848 3325 4848" stroke="#262626" stroke-width="10.3125" stroke-linecap="butt" stroke-linejoin="round" stroke-miterlimit="10" stroke-opacity="1" fill="none" fill-rule="evenodd"/><path d="M3308 4721 3335 4721" stroke="#262626" stroke-width="10.3125" stroke-linecap="butt" stroke-linejoin="round" stroke-miterlimit="10" stroke-opacity="1" fill="none" fill-rule="evenodd"/><path d="M3308 4593 3335 4593" stroke="#262626" stroke-width="10.3125" stroke-linecap="butt" stroke-linejoin="round" stroke-miterlimit="10" stroke-opacity="1" fill="none" fill-rule="evenodd"/><path d="M3308 4465 3335 4465" stroke="#262626" stroke-width="10.3125" stroke-linecap="butt" stroke-linejoin="round" stroke-miterlimit="10" stroke-opacity="1" fill="none" fill-rule="evenodd"/><path d="M3308 4337 3335 4337" stroke="#262626" stroke-width="10.3125" stroke-linecap="butt" stroke-linejoin="round" stroke-miterlimit="10" stroke-opacity="1" fill="none" fill-rule="evenodd"/><path d="M3308 4209 3335 4209" stroke="#262626" stroke-width="10.3125" stroke-linecap="butt" stroke-linejoin="round" stroke-miterlimit="10" stroke-opacity="1" fill="none" fill-rule="evenodd"/><path d="M3308 4081 3335 4081" stroke="#262626" stroke-width="10.3125" stroke-linecap="butt" stroke-linejoin="round" stroke-miterlimit="10" stroke-opacity="1" fill="none" fill-rule="evenodd"/><path d="M3308 3953 3335 3953" stroke="#262626" stroke-width="10.3125" stroke-linecap="butt" stroke-linejoin="round" stroke-miterlimit="10" stroke-opacity="1" fill="none" fill-rule="evenodd"/><path d="M3308 3825 3335 3825" stroke="#262626" stroke-width="10.3125" stroke-linecap="butt" stroke-linejoin="round" stroke-miterlimit="10" stroke-opacity="1" fill="none" fill-rule="evenodd"/><path d="M3308 3697 3335 3697" stroke="#262626" stroke-width="10.3125" stroke-linecap="butt" stroke-linejoin="round" stroke-miterlimit="10" stroke-opacity="1" fill="none" fill-rule="evenodd"/><path d="M3310 3570 3337 3570" stroke="#262626" stroke-width="10.3125" stroke-linecap="butt" stroke-linejoin="round" stroke-miterlimit="10" stroke-opacity="1" fill="none" fill-rule="evenodd"/><path d="M0 0 0.000360892 16.0002" stroke="#262626" stroke-width="10.3125" stroke-linecap="butt" stroke-linejoin="round" stroke-miterlimit="10" stroke-opacity="1" fill="none" fill-rule="evenodd" transform="matrix(-1 1.22465e-16 1.22465e-16 1 4926 3572)"/><path d="M0 0 0.000360892 1278" stroke="#262626" stroke-width="10.3125" stroke-linecap="butt" stroke-linejoin="round" stroke-miterlimit="10" stroke-opacity="1" fill="none" fill-rule="evenodd" transform="matrix(-1 1.22465e-16 1.22465e-16 1 4926 3573)"/><path d="M4926 3700 4899 3700" stroke="#262626" stroke-width="10.3125" stroke-linecap="butt" stroke-linejoin="round" stroke-miterlimit="10" stroke-opacity="1" fill="none" fill-rule="evenodd"/><path d="M4926 3827 4899 3827" stroke="#262626" stroke-width="10.3125" stroke-linecap="butt" stroke-linejoin="round" stroke-miterlimit="10" stroke-opacity="1" fill="none" fill-rule="evenodd"/><path d="M4926 3955 4899 3955" stroke="#262626" stroke-width="10.3125" stroke-linecap="butt" stroke-linejoin="round" stroke-miterlimit="10" stroke-opacity="1" fill="none" fill-rule="evenodd"/><path d="M4926 4084 4899 4084" stroke="#262626" stroke-width="10.3125" stroke-linecap="butt" stroke-linejoin="round" stroke-miterlimit="10" stroke-opacity="1" fill="none" fill-rule="evenodd"/><path d="M4926 4211 4899 4211" stroke="#262626" stroke-width="10.3125" stroke-linecap="butt" stroke-linejoin="round" stroke-miterlimit="10" stroke-opacity="1" fill="none" fill-rule="evenodd"/><path d="M4926 4339 4899 4339" stroke="#262626" stroke-width="10.3125" stroke-linecap="butt" stroke-linejoin="round" stroke-miterlimit="10" stroke-opacity="1" fill="none" fill-rule="evenodd"/><path d="M4926 4467 4899 4467" stroke="#262626" stroke-width="10.3125" stroke-linecap="butt" stroke-linejoin="round" stroke-miterlimit="10" stroke-opacity="1" fill="none" fill-rule="evenodd"/><path d="M4926 4595 4899 4595" stroke="#262626" stroke-width="10.3125" stroke-linecap="butt" stroke-linejoin="round" stroke-miterlimit="10" stroke-opacity="1" fill="none" fill-rule="evenodd"/><path d="M4926 4723 4899 4723" stroke="#262626" stroke-width="10.3125" stroke-linecap="butt" stroke-linejoin="round" stroke-miterlimit="10" stroke-opacity="1" fill="none" fill-rule="evenodd"/><path d="M4929 4851 4877 4851" stroke="#262626" stroke-width="10.3125" stroke-linecap="butt" stroke-linejoin="round" stroke-miterlimit="10" stroke-opacity="1" fill="none" fill-rule="evenodd"/><path d="M4922 3571 4895 3571" stroke="#262626" stroke-width="10.3125" stroke-linecap="butt" stroke-linejoin="round" stroke-miterlimit="10" stroke-opacity="1" fill="none" fill-rule="evenodd"/><path d="M0 0 0.000360892 37.0001" stroke="#262626" stroke-width="10.3125" stroke-linecap="butt" stroke-linejoin="round" stroke-miterlimit="10" stroke-opacity="1" fill="none" fill-rule="evenodd" transform="matrix(1 0 0 -1 3914 4854)"/><path d="M0 0 0.000360892 37.0001" stroke="#262626" stroke-width="10.3125" stroke-linecap="butt" stroke-linejoin="round" stroke-miterlimit="10" stroke-opacity="1" fill="none" fill-rule="evenodd" transform="matrix(1 0 0 -1 4116 4854)"/><path d="M0 0 0.000360892 37.0001" stroke="#262626" stroke-width="10.3125" stroke-linecap="butt" stroke-linejoin="round" stroke-miterlimit="10" stroke-opacity="1" fill="none" fill-rule="evenodd" transform="matrix(1 0 0 -1 4319 4854)"/><path d="M0 0 0.000360892 37.0001" stroke="#262626" stroke-width="10.3125" stroke-linecap="butt" stroke-linejoin="round" stroke-miterlimit="10" stroke-opacity="1" fill="none" fill-rule="evenodd" transform="matrix(1 0 0 -1 4521 4854)"/><path d="M0 0 0.000360892 37.0001" stroke="#262626" stroke-width="10.3125" stroke-linecap="butt" stroke-linejoin="round" stroke-miterlimit="10" stroke-opacity="1" fill="none" fill-rule="evenodd" transform="matrix(1 0 0 -1 4723 4854)"/><path d="M0 0 0.000360892 37.0001" stroke="#262626" stroke-width="10.3125" stroke-linecap="butt" stroke-linejoin="round" stroke-miterlimit="10" stroke-opacity="1" fill="none" fill-rule="evenodd" transform="matrix(1 0 0 -1 4925 4854)"/><text fill="#7F7F7F" fill-opacity="1" font-family="Segoe UI,Segoe UI_MSFontService,sans-serif" font-style="normal" font-variant="normal" font-weight="400" font-stretch="normal" font-size="128" text-anchor="start" direction="ltr" writing-mode="lr-tb" unicode-bidi="normal" text-decoration="none" transform="matrix(1 0 0 1 3162.72 4885)">0</text><text fill="#7F7F7F" fill-opacity="1" font-family="Segoe UI,Segoe UI_MSFontService,sans-serif" font-style="normal" font-variant="normal" font-weight="400" font-stretch="normal" font-size="128" text-anchor="start" direction="ltr" writing-mode="lr-tb" unicode-bidi="normal" text-decoration="none" transform="matrix(1 0 0 1 3097.08 4634)">0.2</text><text fill="#7F7F7F" fill-opacity="1" font-family="Segoe UI,Segoe UI_MSFontService,sans-serif" font-style="normal" font-variant="normal" font-weight="400" font-stretch="normal" font-size="128" text-anchor="start" direction="ltr" writing-mode="lr-tb" unicode-bidi="normal" text-decoration="none" transform="matrix(1 0 0 1 3097.08 4380)">0.4</text><text fill="#7F7F7F" fill-opacity="1" font-family="Segoe UI,Segoe UI_MSFontService,sans-serif" font-style="normal" font-variant="normal" font-weight="400" font-stretch="normal" font-size="128" text-anchor="start" direction="ltr" writing-mode="lr-tb" unicode-bidi="normal" text-decoration="none" transform="matrix(1 0 0 1 3097.08 4123)">0.6</text><text fill="#7F7F7F" fill-opacity="1" font-family="Segoe UI,Segoe UI_MSFontService,sans-serif" font-style="normal" font-variant="normal" font-weight="400" font-stretch="normal" font-size="128" text-anchor="start" direction="ltr" writing-mode="lr-tb" unicode-bidi="normal" text-decoration="none" transform="matrix(1 0 0 1 3097.08 3870)">0.8</text><text fill="#7F7F7F" fill-opacity="1" font-family="Segoe UI,Segoe UI_MSFontService,sans-serif" font-style="normal" font-variant="normal" font-weight="400" font-stretch="normal" font-size="128" text-anchor="start" direction="ltr" writing-mode="lr-tb" unicode-bidi="normal" text-decoration="none" transform="matrix(1 0 0 1 3096.46 3612)">1.0</text><path d="M4121.08 3571.5 4121.1 3599C4121.1 3601.53 4119.05 3603.58 4116.52 3603.58 4113.99 3603.58 4111.94 3601.53 4111.94 3599L4111.92 3571.5C4111.92 3568.97 4113.97 3566.92 4116.5 3566.92 4119.03 3566.92 4121.08 3568.97 4121.08 3571.5ZM4121.13 3635.66 4121.14 3663.16C4121.15 3665.69 4119.1 3667.75 4116.56 3667.75 4114.03 3667.75 4111.98 3665.7 4111.98 3663.17L4111.96 3635.67C4111.96 3633.14 4114.01 3631.08 4116.54 3631.08 4119.07 3631.08 4121.12 3633.13 4121.13 3635.66ZM4121.17 3699.83 4121.19 3727.33C4121.19 3729.86 4119.14 3731.92 4116.61 3731.92 4114.08 3731.92 4112.02 3729.87 4112.02 3727.34L4112 3699.84C4112 3697.31 4114.05 3695.25 4116.58 3695.25 4119.11 3695.25 4121.17 3697.3 4121.17 3699.83ZM4121.21 3764 4121.23 3791.5C4121.23 3794.03 4119.18 3796.08 4116.65 3796.08 4114.12 3796.08 4112.06 3794.03 4112.06 3791.5L4112.04 3764C4112.04 3761.47 4114.09 3759.42 4116.62 3759.42 4119.16 3759.42 4121.21 3761.47 4121.21 3764ZM4121.25 3828.16 4121.27 3855.66C4121.27 3858.19 4119.22 3860.25 4116.69 3860.25 4114.16 3860.25 4112.11 3858.2 4112.11 3855.67L4112.09 3828.17C4112.09 3825.64 4114.14 3823.58 4116.67 3823.58 4119.2 3823.58 4121.25 3825.63 4121.25 3828.16ZM4121.3 3892.33 4121.32 3919.83C4121.32 3922.36 4119.27 3924.42 4116.74 3924.42 4114.2 3924.42 4112.15 3922.37 4112.15 3919.84L4112.13 3892.34C4112.13 3889.8 4114.18 3887.75 4116.71 3887.75 4119.24 3887.75 4121.3 3889.8 4121.3 3892.33ZM4121.34 3956.5 4121.36 3984C4121.36 3986.53 4119.31 3988.58 4116.78 3988.58 4114.25 3988.58 4112.19 3986.53 4112.19 3984L4112.17 3956.5C4112.17 3953.97 4114.22 3951.92 4116.75 3951.92 4119.28 3951.92 4121.34 3953.97 4121.34 3956.5ZM4121.38 4020.66 4121.4 4048.16C4121.4 4050.69 4119.35 4052.75 4116.82 4052.75 4114.29 4052.75 4112.24 4050.7 4112.23 4048.17L4112.22 4020.67C4112.21 4018.14 4114.27 4016.08 4116.8 4016.08 4119.33 4016.08 4121.38 4018.13 4121.38 4020.66ZM4121.43 4084.83 4121.44 4112.33C4121.45 4114.86 4119.4 4116.92 4116.86 4116.92 4114.33 4116.92 4112.28 4114.87 4112.28 4112.34L4112.26 4084.84C4112.26 4082.31 4114.31 4080.25 4116.84 4080.25 4119.37 4080.25 4121.42 4082.3 4121.43 4084.83ZM4121.47 4149 4121.49 4176.5C4121.49 4179.03 4119.44 4181.08 4116.91 4181.08 4114.38 4181.08 4112.32 4179.03 4112.32 4176.5L4112.3 4149C4112.3 4146.47 4114.35 4144.42 4116.88 4144.42 4119.41 4144.42 4121.47 4146.47 4121.47 4149ZM4121.51 4213.16 4121.53 4240.66C4121.53 4243.19 4119.48 4245.25 4116.95 4245.25 4114.42 4245.25 4112.36 4243.2 4112.36 4240.67L4112.34 4213.17C4112.34 4210.64 4114.39 4208.58 4116.92 4208.58 4119.46 4208.58 4121.51 4210.63 4121.51 4213.16ZM4121.55 4277.33 4121.57 4304.83C4121.57 4307.36 4119.52 4309.42 4116.99 4309.42 4114.46 4309.42 4112.41 4307.37 4112.41 4304.84L4112.39 4277.34C4112.39 4274.81 4114.44 4272.75 4116.97 4272.75 4119.5 4272.75 4121.55 4274.8 4121.55 4277.33ZM4121.6 4341.5 4121.61 4369C4121.62 4371.53 4119.57 4373.58 4117.03 4373.58 4114.5 4373.58 4112.45 4371.53 4112.45 4369L4112.43 4341.5C4112.43 4338.97 4114.48 4336.92 4117.01 4336.92 4119.54 4336.92 4121.59 4338.97 4121.6 4341.5ZM4121.64 4405.66 4121.66 4433.16C4121.66 4435.69 4119.61 4437.75 4117.08 4437.75 4114.55 4437.75 4112.49 4435.7 4112.49 4433.17L4112.47 4405.67C4112.47 4403.14 4114.52 4401.08 4117.05 4401.08 4119.58 4401.08 4121.64 4403.13 4121.64 4405.66ZM4121.68 4469.83 4121.7 4497.33C4121.7 4499.86 4119.65 4501.92 4117.12 4501.92 4114.59 4501.92 4112.54 4499.87 4112.53 4497.34L4112.52 4469.84C4112.51 4467.31 4114.56 4465.25 4117.1 4465.25 4119.63 4465.25 4121.68 4467.3 4121.68 4469.83ZM4121.72 4534 4121.74 4561.5C4121.74 4564.03 4119.69 4566.08 4117.16 4566.08 4114.63 4566.08 4112.58 4564.03 4112.58 4561.5L4112.56 4534C4112.56 4531.47 4114.61 4529.42 4117.14 4529.42 4119.67 4529.42 4121.72 4531.47 4121.72 4534ZM4121.77 4598.16 4121.79 4625.66C4121.79 4628.19 4119.74 4630.25 4117.21 4630.25 4114.67 4630.25 4112.62 4628.2 4112.62 4625.67L4112.6 4598.17C4112.6 4595.64 4114.65 4593.58 4117.18 4593.58 4119.71 4593.58 4121.77 4595.63 4121.77 4598.16ZM4121.81 4662.33 4121.83 4689.83C4121.83 4692.36 4119.78 4694.42 4117.25 4694.42 4114.72 4694.42 4112.66 4692.37 4112.66 4689.84L4112.64 4662.34C4112.64 4659.81 4114.69 4657.75 4117.22 4657.75 4119.76 4657.75 4121.81 4659.8 4121.81 4662.33ZM4121.85 4726.5 4121.87 4754C4121.87 4756.53 4119.82 4758.58 4117.29 4758.58 4114.76 4758.58 4112.71 4756.53 4112.7 4754L4112.69 4726.5C4112.68 4723.97 4114.74 4721.92 4117.27 4721.92 4119.8 4721.92 4121.85 4723.97 4121.85 4726.5ZM4121.9 4790.66 4121.91 4818.16C4121.92 4820.69 4119.87 4822.75 4117.33 4822.75 4114.8 4822.75 4112.75 4820.7 4112.75 4818.17L4112.73 4790.67C4112.73 4788.14 4114.78 4786.08 4117.31 4786.08 4119.84 4786.08 4121.89 4788.13 4121.9 4790.66Z" fill="#7F7F7F" fill-rule="nonzero" fill-opacity="1"/><text fill="#1FC2AB" fill-opacity="1" font-family="Segoe UI,Segoe UI_MSFontService,sans-serif" font-style="normal" font-variant="normal" font-weight="400" font-stretch="normal" font-size="110" text-anchor="start" direction="ltr" writing-mode="lr-tb" unicode-bidi="normal" text-decoration="none" transform="matrix(1 0 0 1 4357.76 4248)">FWHM=</text><text fill="#1FC2AB" fill-opacity="1" font-family="Cambria Math,Cambria Math_MSFontService,sans-serif" font-style="normal" font-variant="normal" font-weight="400" font-stretch="normal" font-size="110" text-anchor="start" direction="ltr" writing-mode="lr-tb" unicode-bidi="normal" text-decoration="none" transform="translate(4765.68 4248)">ğ›½</text><text fill="#1FC2AB" fill-opacity="1" font-family="Segoe UI,Segoe UI_MSFontService,sans-serif" font-style="italic" font-variant="normal" font-weight="400" font-stretch="normal" font-size="110" text-anchor="start" direction="ltr" writing-mode="lr-tb" unicode-bidi="normal" text-decoration="none" transform="matrix(1 0 0 1 4600.68 4383)">=</text><text fill="#1FC2AB" fill-opacity="1" font-family="Segoe UI,Segoe UI_MSFontService,sans-serif" font-style="normal" font-variant="normal" font-weight="400" font-stretch="normal" font-size="110" text-anchor="start" direction="ltr" writing-mode="lr-tb" unicode-bidi="normal" text-decoration="none" transform="matrix(1 0 0 1 4676.31 4383)">1/</text><text fill="#1FC2AB" fill-opacity="1" font-family="Segoe UI,Segoe UI_MSFontService,sans-serif" font-style="italic" font-variant="normal" font-weight="400" font-stretch="normal" font-size="110" text-anchor="start" direction="ltr" writing-mode="lr-tb" unicode-bidi="normal" text-decoration="none" transform="matrix(1 0 0 1 4778.86 4383)">R</text><text fill="#1FC2AB" fill-opacity="1" font-family="Segoe UI,Segoe UI_MSFontService,sans-serif" font-style="italic" font-variant="normal" font-weight="400" font-stretch="normal" font-size="73" text-anchor="start" direction="ltr" writing-mode="lr-tb" unicode-bidi="normal" text-decoration="none" transform="matrix(1 0 0 1 4843.03 4410)">m</text><text fill="#1FC2AB" fill-opacity="1" font-family="Segoe UI,Segoe UI_MSFontService,sans-serif" font-style="normal" font-variant="normal" font-weight="400" font-stretch="normal" font-size="110" text-anchor="start" direction="ltr" writing-mode="lr-tb" unicode-bidi="normal" text-decoration="none" transform="matrix(1 0 0 1 3374.69 3695)">height=1</text><text fill="#0B467F" fill-opacity="1" font-family="Segoe UI,Segoe UI_MSFontService,sans-serif" font-style="normal" font-variant="normal" font-weight="400" font-stretch="normal" font-size="110" text-anchor="start" direction="ltr" writing-mode="lr-tb" unicode-bidi="normal" text-decoration="none" transform="matrix(1 0 0 1 3331.56 4395)">height=</text><text fill="#0B467F" fill-opacity="1" font-family="Segoe UI,Segoe UI_MSFontService,sans-serif" font-style="italic" font-variant="normal" font-weight="400" font-stretch="normal" font-size="110" text-anchor="start" direction="ltr" writing-mode="lr-tb" unicode-bidi="normal" text-decoration="none" transform="matrix(1 0 0 1 3717.71 4395)">Î·</text><text fill="#0B467F" fill-opacity="1" font-family="Segoe UI,Segoe UI_MSFontService,sans-serif" font-style="normal" font-variant="normal" font-weight="400" font-stretch="normal" font-size="110" text-anchor="start" direction="ltr" writing-mode="lr-tb" unicode-bidi="normal" text-decoration="none" transform="matrix(1 0 0 1 3828.28 4702)">FWHM=</text><text fill="#0B467F" fill-opacity="1" font-family="Cambria Math,Cambria Math_MSFontService,sans-serif" font-style="normal" font-variant="normal" font-weight="400" font-stretch="normal" font-size="110" text-anchor="start" direction="ltr" writing-mode="lr-tb" unicode-bidi="normal" text-decoration="none" transform="translate(4236.2 4702)">ğ›½</text><text fill="#0B467F" fill-opacity="1" font-family="Segoe UI,Segoe UI_MSFontService,sans-serif" font-style="normal" font-variant="normal" font-weight="400" font-stretch="normal" font-size="110" text-anchor="start" direction="ltr" writing-mode="lr-tb" unicode-bidi="normal" text-decoration="none" transform="matrix(1 0 0 1 4302.65 4702)">/</text><text fill="#0B467F" fill-opacity="1" font-family="Segoe UI,Segoe UI_MSFontService,sans-serif" font-style="italic" font-variant="normal" font-weight="400" font-stretch="normal" font-size="110" text-anchor="start" direction="ltr" writing-mode="lr-tb" unicode-bidi="normal" text-decoration="none" transform="matrix(1 0 0 1 4345.62 4702)">Î¼</text><text fill="#7F7F7F" fill-opacity="1" font-family="Segoe UI,Segoe UI_MSFontService,sans-serif" font-style="normal" font-variant="normal" font-weight="400" font-stretch="normal" font-size="128" text-anchor="start" direction="ltr" writing-mode="lr-tb" unicode-bidi="normal" text-decoration="none" transform="matrix(1 0 0 1 5315.76 3644)">non</text><text fill="#7F7F7F" fill-opacity="1" font-family="Segoe UI,Segoe UI_MSFontService,sans-serif" font-style="normal" font-variant="normal" font-weight="400" font-stretch="normal" font-size="128" text-anchor="start" direction="ltr" writing-mode="lr-tb" unicode-bidi="normal" text-decoration="none" transform="matrix(1 0 0 1 5536.33 3644)">-</text><text fill="#7F7F7F" fill-opacity="1" font-family="Segoe UI,Segoe UI_MSFontService,sans-serif" font-style="normal" font-variant="normal" font-weight="400" font-stretch="normal" font-size="128" text-anchor="start" direction="ltr" writing-mode="lr-tb" unicode-bidi="normal" text-decoration="none" transform="matrix(1 0 0 1 5587.9 3644)">ideal triangular model</text><path d="M0 0 274.72 0.000360892" stroke="#0A467F" stroke-width="27.5" stroke-linecap="square" stroke-linejoin="miter" stroke-miterlimit="8" stroke-dasharray="82.5 27.5" stroke-opacity="1" fill="none" fill-rule="evenodd" transform="matrix(-1 0 0 1 5274.72 3608)"/><path d="M4996 3784 5275.1 3784" stroke="#1DC2AB" stroke-width="29.7917" stroke-linecap="butt" stroke-linejoin="miter" stroke-miterlimit="8" stroke-opacity="1" fill="none" fill-rule="evenodd"/><text fill="#7F7F7F" fill-opacity="1" font-family="Segoe UI,Segoe UI_MSFontService,sans-serif" font-style="normal" font-variant="normal" font-weight="400" font-stretch="normal" font-size="128" text-anchor="start" direction="ltr" writing-mode="lr-tb" unicode-bidi="normal" text-decoration="none" transform="matrix(1 0 0 1 5315.81 3824)">ideal triangular model</text></g></svg>